<svg width="350" height="420" viewBox="0 0 350 420" fill="none" xmlns="http://www.w3.org/2000/svg">
<path d="M277.373 172.736C275.127 172.672 272.745 172.753 270.303 173.055C255.572 174.881 244.594 187.536 244.622 202.38C244.631 206.703 245.092 211.542 246.45 216.358C250.561 230.941 251.829 243.797 251.354 250.057L265.117 257.454C265.117 257.454 271.489 248.301 277.643 244.352C283.798 240.403 304.287 229.848 312.399 218.997C317.628 212.001 318.632 197.644 306.167 185.087C298.552 177.415 288.18 173.04 277.373 172.736Z" fill="#0000E8"/>
<path d="M244.839 265.982L257.272 272.701L249.179 282.98L240.891 279.213L244.839 265.982Z" fill="#455A63"/>
<path d="M245.443 266.396C245.333 266.357 246.566 262.666 248.198 258.154C249.83 253.641 251.243 250.017 251.353 250.057C251.464 250.097 250.231 253.785 248.597 258.298C246.965 262.811 245.554 266.436 245.443 266.396Z" fill="#253138"/>
<path d="M256.489 272.197C256.388 272.137 258.335 268.651 260.839 264.412C263.344 260.171 265.455 256.782 265.555 256.841C265.657 256.901 263.71 260.387 261.205 264.627C258.702 268.867 256.59 272.256 256.489 272.197Z" fill="#253138"/>
<path d="M281.518 173.126C280.961 173.157 274.12 181.165 271.093 186.585C260.911 204.819 260.455 222.564 257.629 243.256C257.225 246.212 255.755 252.586 255.783 252.437C257.29 253.619 262.353 255.969 262.353 255.969C262.353 255.969 267.127 250.206 269.025 247.307C276.623 235.7 284.871 226.653 291.375 214.399C297.88 202.146 304.139 191.28 298.12 178.781C298.12 178.781 287.695 172.78 281.518 173.126Z" fill="black"/>
<path d="M312.451 220.831C312.441 220.835 312.381 220.699 312.274 220.437C312.158 220.177 312.028 219.778 311.797 219.283C311.349 218.287 310.616 216.855 309.396 215.24C308.17 213.64 306.464 211.831 304.114 210.312C301.802 208.759 298.825 207.528 295.452 207.106L295.369 207.096L295.32 207.029C293.738 204.897 291.925 202.695 289.765 200.653C287.609 198.617 285.085 196.742 282.182 195.432C279.284 194.139 276.164 193.565 273.22 193.723C270.274 193.871 267.513 194.808 265.375 196.336L265.252 196.426L265.137 196.324C262.583 194.077 259.52 192.915 256.761 192.602C253.983 192.282 251.518 192.793 249.639 193.51C247.745 194.23 246.41 195.148 245.549 195.812C245.118 196.149 244.797 196.423 244.588 196.615C244.377 196.804 244.264 196.898 244.256 196.891C244.248 196.883 244.348 196.775 244.546 196.571C244.742 196.363 245.05 196.073 245.472 195.719C246.317 195.02 247.647 194.06 249.556 193.298C251.45 192.54 253.956 191.987 256.796 192.288C259.616 192.581 262.755 193.744 265.391 196.038L265.153 196.026C267.344 194.44 270.183 193.469 273.197 193.31C276.211 193.141 279.396 193.723 282.356 195.044C285.315 196.379 287.874 198.287 290.05 200.352C292.229 202.423 294.048 204.649 295.628 206.802L295.496 206.727C298.938 207.175 301.957 208.45 304.289 210.048C306.66 211.611 308.367 213.466 309.579 215.104C310.785 216.756 311.493 218.218 311.909 219.235C312.123 219.741 312.235 220.15 312.331 220.417C312.421 220.688 312.462 220.828 312.451 220.831Z" fill="#253138"/>
<path d="M286.867 239.001C286.784 239.03 286.8 237.757 285.681 236.01C285.115 235.163 284.272 234.199 283.038 233.474C281.834 232.728 280.222 232.227 278.483 232.394L278.311 232.411L278.285 232.24C278.01 230.472 277.277 228.591 276.027 226.924C274.784 225.266 273.043 223.785 270.922 222.96C269.179 222.267 267.325 222.024 265.582 222.142C263.837 222.267 262.208 222.763 260.827 223.486L260.698 223.554L260.595 223.446C259.219 221.972 257.444 221.144 255.816 220.857C254.182 220.527 252.691 220.693 251.531 220.992C249.178 221.633 248.176 222.769 248.129 222.68C248.123 222.672 248.184 222.61 248.311 222.494C248.443 222.386 248.623 222.202 248.895 222.012C249.43 221.624 250.282 221.121 251.47 220.771C252.651 220.433 254.182 220.23 255.874 220.545C257.559 220.817 259.418 221.65 260.878 223.188L260.646 223.148C262.068 222.388 263.749 221.866 265.551 221.73C267.351 221.599 269.271 221.847 271.078 222.565C273.281 223.424 275.08 224.962 276.355 226.681C277.638 228.409 278.379 230.358 278.645 232.186L278.446 232.033C280.286 231.874 281.961 232.427 283.194 233.22C284.458 233.995 285.306 235.009 285.86 235.897C286.411 236.799 286.654 237.601 286.771 238.148C286.831 238.422 286.84 238.639 286.86 238.782C286.874 238.926 286.878 239 286.867 239.001Z" fill="#253138"/>
<path d="M254.869 275.939C254.837 275.963 254.734 275.769 254.412 275.637C254.093 275.502 253.575 275.484 252.959 275.681C252.643 275.765 252.286 275.881 251.859 275.883C251.431 275.89 250.957 275.683 250.63 275.34C249.97 274.653 249.719 273.66 249.095 272.973C248.786 272.638 248.381 272.465 247.95 272.491C247.518 272.507 247.085 272.65 246.654 272.75C246.225 272.853 245.77 272.918 245.35 272.819C244.936 272.731 244.594 272.525 244.332 272.298C243.804 271.835 243.574 271.291 243.514 270.916C243.45 270.537 243.51 270.327 243.532 270.33C243.568 270.331 243.566 270.538 243.674 270.876C243.775 271.211 244.03 271.683 244.522 272.065C244.766 272.253 245.072 272.416 245.42 272.474C245.763 272.541 246.15 272.479 246.56 272.37C246.972 272.267 247.413 272.105 247.933 272.075C248.456 272.029 249.038 272.27 249.404 272.682C250.127 273.504 250.354 274.482 250.912 275.068C251.182 275.357 251.519 275.519 251.868 275.53C252.219 275.544 252.565 275.457 252.888 275.389C253.538 275.22 254.146 275.281 254.486 275.489C254.834 275.695 254.887 275.938 254.869 275.939Z" fill="#253138"/>
<path d="M256.295 273.944C256.24 274.047 253.524 272.707 250.23 270.949C246.935 269.191 244.308 267.683 244.364 267.579C244.418 267.476 247.134 268.816 250.43 270.574C253.724 272.331 256.35 273.84 256.295 273.944Z" fill="#253138"/>
<path d="M253.826 277.079C253.833 277.112 253.652 277.165 253.351 277.304C253.2 277.371 253.026 277.475 252.79 277.571C252.553 277.669 252.246 277.706 251.933 277.683C251.312 277.639 250.547 277.445 249.884 276.893C249.555 276.624 249.277 276.232 249.104 275.818C248.92 275.413 248.777 274.995 248.501 274.7C247.932 274.092 247.012 274.027 246.25 274.053C245.465 274.082 244.691 274.105 244.087 273.847C243.491 273.597 243.129 273.175 242.994 272.844C242.855 272.509 242.905 272.303 242.925 272.306C242.961 272.301 242.974 272.495 243.142 272.769C243.303 273.039 243.655 273.379 244.194 273.567C244.73 273.758 245.434 273.715 246.234 273.662C247.014 273.621 248.068 273.635 248.815 274.412C249.169 274.803 249.312 275.268 249.483 275.649C249.644 276.038 249.859 276.35 250.141 276.599C250.701 277.094 251.392 277.309 251.96 277.383C252.537 277.489 252.951 277.247 253.293 277.149C253.628 277.053 253.821 277.055 253.826 277.079Z" fill="#253138"/>
<path d="M252.033 186.037C240.001 177.633 238.673 161.95 240.618 147.841C240.943 145.486 240.92 143.004 242.323 140.933C243.727 138.863 246.656 137.44 248.8 138.423C250.58 139.239 251.183 141.27 252.055 142.948C253.213 145.182 255.093 147.025 257.403 148.2C258.92 148.972 260.849 149.439 262.509 148.617C264.786 147.488 265.326 144.681 265.549 142.338C265.964 137.973 266.38 133.608 266.794 129.244C267.017 126.902 267.254 124.51 268.255 122.285C269.258 120.058 271.183 117.987 273.62 117.353C276.058 116.72 278.861 117.992 279.129 120.283C279.241 121.237 278.933 122.227 278.904 123.199C278.874 124.171 279.247 125.245 280.203 125.512C281.172 125.783 282.237 125.114 283.052 124.426C285.868 122.051 287.925 118.998 289.866 115.962C291.808 112.926 293.709 109.819 296.307 107.23C298.907 104.641 302.349 102.584 305.94 102.381C309.533 102.177 313.13 104.231 313.697 107.52C314.266 110.82 311.874 114.177 309.368 116.859C305.652 120.838 301.377 124.36 296.717 127.28C295.877 127.808 294.967 128.377 294.578 129.246C293.877 130.81 295.295 132.354 296.885 132.86C298.685 133.435 300.721 133.246 302.645 133.453C304.569 133.661 306.594 134.457 307.155 136.18C307.933 138.57 305.546 141.088 303.281 142.739C298.743 146.048 293.68 148.665 288.382 150.446C286.483 151.084 284.495 151.645 282.892 152.861C281.288 154.078 280.18 156.186 280.907 157.832C281.634 159.48 283.874 159.999 285.831 159.657C287.787 159.314 289.608 158.327 291.506 157.671C295.058 156.443 299.464 156.647 301.378 159.42C302.635 161.243 302.502 163.789 301.551 165.971C300.599 168.153 298.927 170.037 297.179 171.774C291.067 177.848 283.537 182.749 275.319 185.369C267.103 187.99 259.661 188.719 252.033 186.037Z" fill="#F5F5F5"/>
<path d="M254.091 187.167C255.207 181.557 253.613 184.602 256.575 177.454C259.52 170.301 263.42 162.647 267.783 154.745C268.882 152.773 269.967 150.824 271.037 148.904C272.109 146.988 273.17 145.089 274.328 143.28C276.624 139.654 279.114 136.304 281.577 133.184C284.037 130.061 286.488 127.171 288.797 124.484C291.114 121.798 293.318 119.328 295.423 117.149C299.621 112.774 303.41 109.587 306.095 107.491C307.437 106.438 308.502 105.651 309.232 105.126C309.583 104.877 309.857 104.681 310.064 104.533C310.253 104.402 310.352 104.337 310.357 104.343C310.362 104.349 310.271 104.425 310.09 104.567C309.89 104.723 309.624 104.929 309.285 105.193C308.574 105.739 307.525 106.547 306.201 107.617C303.553 109.749 299.811 112.958 295.655 117.344C293.571 119.53 291.384 122.003 289.084 124.695C286.789 127.39 284.355 130.283 281.909 133.403C279.462 136.52 276.99 139.863 274.71 143.472C273.562 145.273 272.511 147.155 271.438 149.076C270.371 150.996 269.287 152.944 268.189 154.916C263.831 162.811 259.927 170.442 256.968 177.568C253.995 184.687 255.565 181.608 254.412 187.196" fill="#DFDFDF"/>
<path d="M274.171 142.753C274.136 142.757 274.08 142.388 274.006 141.712C273.927 141.038 273.853 140.056 273.781 138.842C273.633 136.413 273.562 133.044 273.501 129.328C273.439 125.61 273.312 122.257 273.123 119.84C273.033 118.631 272.948 117.654 272.879 116.98C272.816 116.305 272.796 115.926 272.831 115.919C272.866 115.913 272.953 116.279 273.077 116.945C273.207 117.61 273.346 118.582 273.483 119.789C273.766 122.2 273.95 125.563 274.012 129.284C274.062 132.951 274.107 136.269 274.143 138.805C274.167 139.949 274.187 140.914 274.204 141.688C274.215 142.369 274.207 142.748 274.171 142.753Z" fill="#DFDFDF"/>
<path d="M306.042 138.257C306.039 138.284 305.594 138.325 304.793 138.371C303.991 138.424 302.833 138.492 301.402 138.618C298.539 138.849 294.587 139.291 290.238 139.946C285.889 140.606 281.969 141.35 279.147 141.96C277.733 142.256 276.595 142.522 275.808 142.702C275.02 142.885 274.581 142.973 274.573 142.948C274.566 142.921 274.993 142.783 275.771 142.554C276.548 142.329 277.681 142.021 279.091 141.688C281.906 141.008 285.832 140.218 290.196 139.554C294.558 138.898 298.526 138.5 301.399 138.339C302.835 138.249 303.998 138.221 304.8 138.217C305.6 138.217 306.042 138.229 306.042 138.257Z" fill="#DFDFDF"/>
<path d="M259.255 176.41C259.238 176.416 259.169 176.285 259.052 176.027C258.92 175.72 258.76 175.346 258.566 174.893C258.148 173.904 257.589 172.457 256.924 170.66C255.591 167.067 253.932 162.038 252.188 156.462C250.443 150.883 248.84 145.844 247.596 142.225C246.985 140.466 246.482 139.019 246.108 137.943C245.949 137.476 245.819 137.091 245.712 136.774C245.626 136.506 245.589 136.362 245.605 136.355C245.622 136.35 245.692 136.481 245.809 136.739C245.94 137.045 246.1 137.419 246.295 137.873C246.712 138.861 247.272 140.308 247.937 142.104C249.27 145.698 250.929 150.727 252.673 156.305C254.418 161.883 256.021 166.921 257.264 170.541C257.875 172.3 258.379 173.748 258.753 174.823C258.911 175.29 259.041 175.675 259.149 175.99C259.234 176.26 259.272 176.404 259.255 176.41Z" fill="#DFDFDF"/>
<path d="M301.453 165.447C301.456 165.461 301.309 165.51 301.029 165.591C300.698 165.683 300.292 165.795 299.8 165.931C298.665 166.235 297.131 166.644 295.266 167.141C291.44 168.163 286.168 169.627 280.345 171.252C274.519 172.878 269.23 174.301 265.385 175.255C263.461 175.733 261.903 176.105 260.819 176.344C260.32 176.451 259.908 176.539 259.573 176.612C259.287 176.669 259.136 176.692 259.132 176.679C259.13 176.666 259.275 176.617 259.555 176.535C259.886 176.443 260.292 176.332 260.786 176.195C261.921 175.892 263.453 175.484 265.317 174.986C269.145 173.964 274.417 172.499 280.242 170.874C286.066 169.249 291.353 167.825 295.201 166.871C297.124 166.394 298.683 166.021 299.765 165.782C300.265 165.675 300.677 165.586 301.012 165.514C301.298 165.457 301.45 165.434 301.453 165.447Z" fill="#DFDFDF"/>
<path d="M201.887 330.373L249.626 332.416L250.778 335.197L219.49 385.982L163.007 384.336L201.887 330.373Z" fill="#253138"/>
<path d="M160.864 379.384L217.687 382.631L247.366 336.572L226.526 338.267L173.779 356.841L160.864 379.384Z" fill="#DFDFDF"/>
<path d="M152.883 375.969L205.062 376.793C202.895 370.117 208.007 360.715 215.022 357.553C219.671 355.457 228.421 352.741 232.935 350.425C241.513 346.026 249.264 337.692 248.586 330.542L227.156 329.858L199.803 328.802C197.515 335.587 192.623 340.032 185.186 342.706C178.53 345.099 170.955 345.093 164.463 347.812C154.013 352.188 148.992 366.368 152.883 375.969Z" fill="#EBEBEB"/>
<path d="M152.883 375.969C152.883 375.969 152.834 375.858 152.753 375.633C152.668 375.396 152.549 375.061 152.395 374.626C152.213 374.188 152.107 373.613 151.951 372.937C151.763 372.266 151.701 371.462 151.591 370.561C151.459 368.755 151.477 366.499 152.005 363.927C152.536 361.366 153.544 358.48 155.352 355.645C155.82 354.95 156.27 354.215 156.854 353.548C157.136 353.21 157.401 352.849 157.708 352.517C158.025 352.195 158.347 351.869 158.672 351.54C158.985 351.197 159.345 350.898 159.715 350.602C160.084 350.307 160.442 349.989 160.832 349.705C161.651 349.192 162.444 348.591 163.373 348.189C166.988 346.366 171.309 345.597 175.806 344.782C178.061 344.372 180.384 343.942 182.715 343.301C185.036 342.642 187.375 341.763 189.594 340.533C190.709 339.93 191.786 339.226 192.804 338.427C193.831 337.637 194.792 336.74 195.653 335.737C197.407 333.755 198.728 331.344 199.618 328.739L199.666 328.602L199.812 328.606C207.076 328.884 214.7 329.174 222.602 329.475C230.504 329.785 238.688 330 247.065 330.28C247.58 330.297 248.094 330.314 248.593 330.33L248.782 330.336L248.799 330.523C248.943 332.175 248.641 333.82 248.108 335.345C247.865 336.122 247.493 336.84 247.153 337.568C246.75 338.263 246.374 338.973 245.905 339.62C244.126 342.277 241.846 344.501 239.44 346.454C237.014 348.394 234.381 350.005 231.639 351.274C228.887 352.511 226.1 353.52 223.37 354.529C220.641 355.538 217.943 356.496 215.38 357.611C214.124 358.197 212.916 358.863 211.87 359.742C211.316 360.137 210.852 360.638 210.346 361.082C209.9 361.586 209.402 362.043 209.006 362.581C207.321 364.648 206.055 366.991 205.357 369.439C204.619 371.87 204.536 374.442 205.228 376.738L205.298 376.971L205.06 376.966C189.255 376.686 176.216 376.454 167.112 376.293C162.576 376.2 159.022 376.129 156.589 376.081C155.388 376.051 154.465 376.027 153.828 376.011C153.205 375.993 152.883 375.969 152.883 375.969C152.883 375.969 153.205 375.957 153.829 375.958C154.466 375.963 155.389 375.968 156.591 375.975C159.025 376.003 162.578 376.043 167.116 376.094C176.22 376.22 189.26 376.4 205.066 376.619L204.898 376.847C204.173 374.466 204.26 371.82 205.008 369.337C205.716 366.835 207 364.451 208.712 362.342C209.117 361.794 209.62 361.325 210.076 360.81C210.592 360.356 211.064 359.846 211.63 359.439C212.696 358.543 213.94 357.851 215.221 357.253C217.806 356.124 220.503 355.164 223.23 354.151C225.958 353.139 228.741 352.127 231.468 350.898C234.174 349.642 236.781 348.046 239.179 346.127C241.557 344.193 243.808 341.994 245.555 339.384C246.016 338.748 246.382 338.052 246.777 337.371C247.109 336.66 247.474 335.958 247.708 335.205C248.225 333.723 248.513 332.14 248.376 330.563L248.58 330.754C248.08 330.739 247.566 330.721 247.052 330.706C238.674 330.424 230.49 330.207 222.587 329.89C214.685 329.581 207.06 329.282 199.796 328.997L199.99 328.864C199.081 331.51 197.731 333.968 195.939 335.986C195.059 337.008 194.078 337.919 193.032 338.721C191.995 339.531 190.9 340.243 189.769 340.852C187.517 342.094 185.155 342.978 182.808 343.637C180.454 344.278 178.122 344.703 175.864 345.107C171.363 345.907 167.069 346.663 163.501 348.446C162.584 348.837 161.803 349.425 160.993 349.927C160.607 350.205 160.253 350.52 159.887 350.809C159.521 351.098 159.164 351.392 158.854 351.728C158.532 352.053 158.213 352.372 157.897 352.689C157.594 353.015 157.329 353.372 157.048 353.706C156.468 354.361 156.02 355.088 155.552 355.774C153.75 358.571 152.73 361.428 152.186 363.966C151.644 366.514 151.606 368.755 151.717 370.551C151.817 371.448 151.869 372.247 152.046 372.917C152.19 373.592 152.286 374.168 152.458 374.607C152.598 375.045 152.706 375.381 152.783 375.621C152.855 375.849 152.883 375.969 152.883 375.969Z" fill="#253138"/>
<path d="M214.462 329.647C214.425 329.636 214.531 329.312 214.58 328.714C214.626 328.122 214.587 327.233 214.17 326.25C213.768 325.281 212.969 324.204 211.703 323.608C210.457 323.006 208.812 322.882 207.307 323.449C205.791 324.005 204.699 325.241 204.13 326.507C203.539 327.783 203.458 329.097 203.628 330.141C203.799 331.196 204.198 331.987 204.519 332.489C204.843 332.997 205.084 333.237 205.057 333.263C205.043 333.278 204.76 333.078 204.384 332.585C204.011 332.096 203.551 331.294 203.332 330.194C203.116 329.106 203.165 327.708 203.773 326.347C204.354 324.997 205.516 323.655 207.157 323.052C208.777 322.441 210.539 322.588 211.876 323.255C213.234 323.924 214.062 325.103 214.449 326.138C214.851 327.191 214.843 328.126 214.744 328.734C214.694 329.039 214.632 329.273 214.57 329.423C214.514 329.575 214.477 329.652 214.462 329.647Z" fill="#253138"/>
<path d="M222.64 329.647C222.602 329.636 222.708 329.312 222.758 328.714C222.803 328.122 222.764 327.233 222.348 326.25C221.946 325.281 221.146 324.204 219.88 323.608C218.635 323.006 216.99 322.882 215.484 323.449C213.968 324.005 212.876 325.241 212.308 326.507C211.716 327.783 211.636 329.097 211.806 330.141C211.977 331.196 212.376 331.987 212.698 332.489C213.021 332.997 213.262 333.237 213.235 333.263C213.221 333.278 212.938 333.078 212.562 332.585C212.188 332.096 211.728 331.294 211.51 330.194C211.294 329.106 211.343 327.708 211.95 326.347C212.532 324.997 213.694 323.655 215.334 323.052C216.955 322.441 218.718 322.588 220.053 323.255C221.413 323.924 222.24 325.103 222.627 326.138C223.028 327.191 223.02 328.126 222.922 328.734C222.871 329.039 222.809 329.273 222.748 329.423C222.691 329.575 222.654 329.652 222.64 329.647Z" fill="#253138"/>
<path d="M228.852 330.072C228.813 330.062 228.901 329.734 228.915 329.134C228.928 328.54 228.837 327.653 228.367 326.697C227.91 325.75 227.052 324.722 225.755 324.197C224.478 323.669 222.826 323.637 221.355 324.289C219.874 324.929 218.854 326.225 218.358 327.522C217.839 328.828 217.833 330.146 218.063 331.178C218.293 332.222 218.736 332.989 219.085 333.473C219.437 333.962 219.691 334.187 219.666 334.215C219.652 334.231 219.358 334.046 218.955 333.576C218.554 333.109 218.05 332.334 217.769 331.248C217.491 330.174 217.462 328.775 217.992 327.382C218.496 326 219.581 324.597 221.184 323.902C222.768 323.201 224.535 323.247 225.906 323.837C227.302 324.426 228.194 325.557 228.639 326.569C229.1 327.596 229.145 328.532 229.082 329.145C229.048 329.452 229 329.689 228.946 329.842C228.898 329.998 228.866 330.076 228.852 330.072Z" fill="#253138"/>
<path d="M235.511 330.452C235.471 330.444 235.541 330.111 235.526 329.511C235.506 328.917 235.369 328.037 234.849 327.107C234.343 326.186 233.429 325.204 232.108 324.749C230.804 324.289 229.154 324.344 227.72 325.074C226.274 325.792 225.323 327.139 224.897 328.46C224.449 329.793 224.513 331.108 224.796 332.128C225.08 333.157 225.564 333.899 225.939 334.364C226.316 334.834 226.582 335.046 226.557 335.074C226.546 335.092 226.242 334.923 225.814 334.473C225.39 334.029 224.844 333.282 224.508 332.213C224.172 331.155 224.069 329.76 224.524 328.34C224.954 326.934 225.963 325.474 227.527 324.695C229.072 323.911 230.84 323.864 232.24 324.38C233.665 324.896 234.616 325.978 235.114 326.966C235.629 327.967 235.723 328.898 235.691 329.512C235.673 329.822 235.637 330.06 235.593 330.217C235.553 330.374 235.525 330.454 235.511 330.452Z" fill="#253138"/>
<path d="M242.182 330.295C242.143 330.289 242.204 329.954 242.17 329.355C242.134 328.761 241.974 327.886 241.426 326.97C240.895 326.065 239.956 325.108 238.62 324.69C237.304 324.267 235.656 324.369 234.244 325.139C232.818 325.897 231.906 327.27 231.517 328.603C231.106 329.948 231.207 331.261 231.518 332.272C231.832 333.293 232.336 334.021 232.723 334.476C233.114 334.934 233.386 335.138 233.363 335.167C233.351 335.185 233.043 335.025 232.603 334.588C232.166 334.156 231.6 333.424 231.232 332.365C230.869 331.317 230.727 329.924 231.141 328.493C231.531 327.075 232.498 325.588 234.041 324.765C235.562 323.938 237.328 323.842 238.743 324.32C240.181 324.793 241.163 325.848 241.687 326.822C242.231 327.808 242.35 328.737 242.336 329.351C242.328 329.662 242.298 329.9 242.258 330.058C242.222 330.217 242.197 330.298 242.182 330.295Z" fill="#253138"/>
<path d="M247.805 331.045C247.765 331.037 247.84 330.705 247.83 330.105C247.818 329.51 247.692 328.629 247.181 327.692C246.686 326.766 245.786 325.773 244.469 325.303C243.171 324.828 241.52 324.864 240.077 325.576C238.624 326.277 237.657 327.612 237.215 328.928C236.75 330.255 236.799 331.572 237.07 332.594C237.344 333.627 237.817 334.376 238.187 334.844C238.559 335.318 238.821 335.533 238.797 335.561C238.785 335.578 238.484 335.407 238.061 334.952C237.641 334.502 237.105 333.749 236.781 332.676C236.458 331.615 236.372 330.218 236.844 328.804C237.29 327.403 238.316 325.954 239.89 325.194C241.443 324.429 243.212 324.403 244.606 324.936C246.025 325.468 246.963 326.561 247.448 327.554C247.952 328.562 248.035 329.494 247.996 330.107C247.975 330.418 247.935 330.655 247.89 330.812C247.847 330.968 247.819 331.048 247.805 331.045Z" fill="#253138"/>
<path d="M103.064 224.768C103.064 224.768 97.4528 228.128 106.161 239.174C114.869 250.219 120.469 255.433 120.469 255.433C120.469 255.433 122.134 258.068 119.717 259.007C117.299 259.947 111.651 260.189 111.061 263.359C110.451 266.646 113.266 269.077 118.382 270.685C123.498 272.293 134.56 276.219 135.559 276.577C136.54 276.931 137.665 278.087 136.116 278.98C134.566 279.873 122.421 283.568 124.384 289.008C126.347 294.447 141.435 296.626 143.078 296.894C144.721 297.164 145.202 297.722 145.222 298.564C145.241 299.406 141.051 300.278 137.637 301.465C134.222 302.652 130.457 304.603 131.864 307.641C133.27 310.679 142.877 315.742 163.646 313.631L173.225 312.042L177.029 303.245C184.006 283.974 181.235 273.642 178.55 271.59C175.865 269.537 173.044 272.661 171.063 275.631C169.082 278.602 167.232 282.386 166.402 282.17C165.57 281.953 165.129 281.365 165.248 279.738C165.367 278.11 166.749 263.239 161.811 260.092C156.872 256.946 150.351 267.636 149.1 268.902C147.849 270.167 146.965 268.824 146.846 267.808C146.725 266.773 145.426 255.322 145.032 250.075C144.638 244.828 142.886 241.578 139.479 241.387C136.194 241.202 134.626 246.522 133.125 248.601C131.625 250.682 129.4 248.478 129.4 248.478C129.4 248.478 125.541 241.923 116.621 231.041C107.703 220.157 102.955 224.844 102.955 224.844" fill="#EBEBEB"/>
<path d="M174.242 314.288C167.71 306.254 156.356 291.776 146.539 279.397C136.726 267.024 127.829 255.828 121.342 247.762C118.099 243.738 115.472 240.479 113.649 238.216C112.747 237.096 112.044 236.221 111.558 235.618C111.328 235.326 111.149 235.1 111.02 234.937C110.9 234.784 110.846 234.7 110.846 234.7C110.846 234.7 110.917 234.77 111.044 234.919C111.179 235.076 111.366 235.296 111.606 235.58C112.102 236.176 112.82 237.038 113.741 238.143C115.592 240.369 118.246 243.612 121.51 247.63C128.041 255.665 136.966 266.84 146.779 279.215C156.596 291.594 167.923 306.09 174.411 314.158" fill="#DFDFDF"/>
<path d="M119.23 263.06C119.234 263.042 119.478 263.059 119.918 263.106C120.358 263.152 120.99 263.237 121.771 263.347C123.333 263.571 125.478 263.934 127.838 264.373C130.162 264.815 132.265 265.214 133.873 265.519C134.598 265.652 135.211 265.766 135.702 265.856C136.135 265.934 136.374 265.985 136.37 266.005C136.367 266.024 136.122 266.008 135.682 265.963C135.242 265.916 134.608 265.833 133.829 265.714C132.271 265.474 130.13 265.087 127.772 264.647C125.444 264.22 123.34 263.836 121.73 263.541C121.003 263.411 120.389 263.302 119.897 263.213C119.464 263.133 119.226 263.079 119.23 263.06Z" fill="#DFDFDF"/>
<path d="M136.683 265.53C136.598 265.519 137.368 261.057 138.401 255.567C139.435 250.074 140.342 245.633 140.427 245.645C140.511 245.657 139.742 250.118 138.708 255.61C137.673 261.1 136.767 265.542 136.683 265.53Z" fill="#DFDFDF"/>
<path d="M150.897 285.745C150.878 285.736 150.983 285.506 151.186 285.097C151.42 284.635 151.712 284.057 152.058 283.373C152.792 281.916 153.796 279.901 154.823 277.639C155.854 275.38 156.714 273.308 157.326 271.801C157.615 271.093 157.857 270.496 158.051 270.017C158.225 269.598 158.33 269.367 158.35 269.373C158.37 269.38 158.302 269.622 158.163 270.053C158.022 270.485 157.808 271.106 157.526 271.869C156.966 273.394 156.134 275.485 155.1 277.751C154.071 280.017 153.033 282.026 152.249 283.462C151.853 284.179 151.528 284.756 151.29 285.148C151.054 285.541 150.916 285.755 150.897 285.745Z" fill="#DFDFDF"/>
<path d="M134.565 286.814C134.564 286.797 134.793 286.761 135.208 286.714C135.686 286.666 136.274 286.606 136.967 286.536C138.454 286.397 140.51 286.222 142.782 286.046C145.054 285.869 147.113 285.724 148.603 285.631C149.299 285.593 149.889 285.561 150.37 285.535C150.787 285.518 151.018 285.518 151.02 285.535C151.02 285.552 150.792 285.587 150.376 285.635C149.898 285.684 149.31 285.743 148.617 285.813C147.13 285.951 145.074 286.126 142.802 286.302C140.529 286.48 138.472 286.625 136.982 286.718C136.286 286.755 135.695 286.788 135.216 286.814C134.798 286.831 134.567 286.831 134.565 286.814Z" fill="#DFDFDF"/>
<path d="M144.825 306.25C144.824 306.232 145.116 306.189 145.648 306.128C146.236 306.066 146.995 305.986 147.903 305.89C149.809 305.701 152.441 305.457 155.351 305.204C158.262 304.951 160.899 304.735 162.808 304.593C163.721 304.53 164.48 304.478 165.07 304.437C165.604 304.406 165.901 304.397 165.902 304.415C165.904 304.433 165.61 304.476 165.078 304.538C164.492 304.6 163.733 304.68 162.824 304.776C160.918 304.965 158.286 305.208 155.374 305.462C152.465 305.715 149.827 305.929 147.918 306.073C147.007 306.135 146.247 306.188 145.658 306.228C145.123 306.259 144.827 306.267 144.825 306.25Z" fill="#DFDFDF"/>
<path d="M165.127 304.321C165.109 304.312 165.232 304.017 165.473 303.491C165.737 302.918 166.082 302.169 166.499 301.267C167.364 299.388 168.549 296.79 169.773 293.889C171.003 290.988 172.044 288.336 172.786 286.412C173.143 285.488 173.438 284.721 173.665 284.134C173.875 283.596 174.001 283.302 174.02 283.307C174.04 283.313 173.953 283.619 173.777 284.168C173.601 284.716 173.334 285.506 172.988 286.477C172.298 288.419 171.286 291.086 170.054 293.991C168.827 296.898 167.609 299.489 166.693 301.348C166.233 302.277 165.853 303.025 165.579 303.537C165.305 304.05 165.146 304.329 165.127 304.321Z" fill="#DFDFDF"/>
<path d="M64.5005 214.425L67.9 219.87C67.9 219.87 82.4016 206.526 96.787 210.298C96.787 210.298 83.8585 199.335 64.5005 214.425Z" fill="#0000E8"/>
<path d="M96.787 210.299C96.787 210.299 107.432 198.74 123.04 201.376L127.297 202.017L125.937 199.559C125.937 199.559 98.7911 190.261 96.787 210.299Z" fill="#0000E8"/>
<path d="M74.3192 171.322C74.3192 171.322 52.9981 167.653 39.012 175.22L61.2172 217.029C61.2172 217.029 79.3945 199.508 96.7861 210.298L74.3192 171.322Z" fill="#F5F5F5"/>
<path d="M74.3193 171.323C74.3227 171.319 74.3612 171.376 74.433 171.493C74.5134 171.625 74.6168 171.797 74.7519 172.02C75.0392 172.505 75.4505 173.2 75.9806 174.097C77.0587 175.943 78.6208 178.62 80.6027 182.011C84.5742 188.862 90.2197 198.597 96.9503 210.205C97.0016 210.295 96.9708 210.409 96.8819 210.461C96.8195 210.497 96.7442 210.493 96.687 210.458C94.2758 208.978 91.5056 207.855 88.514 207.321C87.0152 207.074 85.4702 206.97 83.9047 207.001C82.34 207.065 80.7591 207.262 79.1834 207.595C72.8855 208.993 66.7679 212.413 61.5464 217.012L61.3652 217.183C61.2805 217.264 61.1463 217.261 61.0642 217.177C61.0514 217.164 61.0386 217.145 61.03 217.129C52.781 201.569 45.1347 187.145 38.8564 175.302C38.8111 175.22 38.8411 175.116 38.924 175.07L38.9283 175.067C43.818 172.539 48.7796 171.443 53.1401 170.86C57.522 170.295 61.3686 170.276 64.5133 170.366C67.6614 170.471 70.1161 170.723 71.7808 170.929C72.6136 171.03 73.2488 171.127 73.6755 171.198C73.8773 171.234 74.0371 171.262 74.1594 171.284C74.2697 171.307 74.3219 171.32 74.3193 171.323C74.3167 171.326 74.2594 171.322 74.1526 171.309C74.0294 171.295 73.8704 171.275 73.6669 171.25C73.2386 171.197 72.6016 171.117 71.7688 171.032C70.1024 170.86 67.6486 170.641 64.5082 170.566C61.3703 170.506 57.5348 170.553 53.1768 171.141C48.8403 171.744 43.9163 172.859 39.095 175.374L39.166 175.139C45.4622 186.971 53.1324 201.382 61.4054 216.93L61.0702 216.876L61.2609 216.7C63.8926 214.342 66.7696 212.366 69.7613 210.735C72.7598 209.118 75.9027 207.881 79.0979 207.192C80.6967 206.857 82.3024 206.658 83.8936 206.596C85.4864 206.568 87.0554 206.675 88.5815 206.93C91.6253 207.478 94.4426 208.629 96.8862 210.138L96.6237 210.392C89.9675 198.777 84.3826 189.033 80.4539 182.178C78.5062 178.755 76.9698 176.054 75.9096 174.191C75.3949 173.275 74.9956 172.565 74.7169 172.069C74.5886 171.836 74.4911 171.656 74.415 171.518C74.3484 171.393 74.3167 171.327 74.3193 171.323Z" fill="#253138"/>
<path d="M107.834 162.744C107.834 162.744 91.7048 152.465 74.592 171.324L97.0606 210.3C97.0606 210.3 101.646 194.479 128.471 199.981L107.834 162.744Z" fill="#F5F5F5"/>
<path d="M107.834 162.744C107.839 162.74 107.875 162.797 107.942 162.908C108.017 163.035 108.113 163.2 108.238 163.412C108.503 163.877 108.882 164.541 109.369 165.397C110.36 167.16 111.796 169.715 113.616 172.954C117.262 179.494 122.446 188.791 128.635 199.891C128.685 199.982 128.653 200.095 128.562 200.146C128.524 200.167 128.481 200.173 128.442 200.167L128.434 200.165C127.127 199.95 125.795 199.731 124.439 199.509C123.765 199.373 123.072 199.335 122.376 199.28C121.679 199.225 120.978 199.168 120.27 199.111C119.564 199.028 118.849 199.046 118.129 199.061C117.409 199.069 116.684 199.079 115.953 199.088C115.223 199.104 114.497 199.237 113.76 199.306C113.027 199.399 112.279 199.437 111.555 199.638C110.825 199.803 110.091 199.971 109.351 200.137C108.636 200.387 107.918 200.638 107.196 200.891C106.472 201.142 105.806 201.54 105.104 201.86C104.747 202.013 104.42 202.221 104.097 202.436L103.114 203.066C102.466 203.498 101.885 204.032 101.272 204.524C100.734 205.096 100.127 205.611 99.6563 206.253C98.6483 207.467 97.7873 208.868 97.2657 210.358L97.2615 210.37C97.223 210.48 97.1016 210.538 96.9904 210.499C96.9417 210.482 96.9024 210.447 96.8776 210.405C96.592 209.909 96.2816 209.371 95.9713 208.834C88.0275 195.027 80.624 182.163 74.4372 171.412C74.3988 171.343 74.4099 171.258 74.4612 171.202C78.26 167.059 82.4529 163.897 86.6321 162.051C90.8019 160.159 94.87 159.689 98.1139 159.898C101.378 160.1 103.852 160.894 105.459 161.543C106.266 161.868 106.86 162.175 107.255 162.388C107.439 162.496 107.583 162.58 107.695 162.645C107.792 162.709 107.838 162.741 107.834 162.744C107.831 162.747 107.779 162.722 107.68 162.669C107.566 162.61 107.418 162.534 107.229 162.437C106.827 162.241 106.228 161.953 105.418 161.644C103.806 161.03 101.34 160.275 98.1019 160.105C94.8846 159.928 90.8661 160.423 86.751 162.318C82.6256 164.168 78.4848 167.317 74.7254 171.444L74.7485 171.234C80.9515 181.975 88.3737 194.828 96.3398 208.622C96.6501 209.16 96.9588 209.697 97.2452 210.193L96.8571 210.24C97.4154 208.645 98.29 207.242 99.328 205.986C99.8119 205.328 100.434 204.797 100.988 204.211C101.614 203.708 102.21 203.164 102.873 202.721L103.878 202.078C104.21 201.859 104.544 201.647 104.907 201.49C105.624 201.164 106.305 200.758 107.042 200.504C107.778 200.248 108.51 199.994 109.237 199.741C109.988 199.571 110.735 199.403 111.476 199.236C112.211 199.034 112.969 198.994 113.712 198.901C114.456 198.832 115.193 198.702 115.932 198.686C116.67 198.678 117.402 198.669 118.129 198.662C118.858 198.649 119.58 198.633 120.291 198.717C121.004 198.775 121.711 198.834 122.413 198.892C123.114 198.949 123.813 198.99 124.492 199.128C125.855 199.355 127.195 199.579 128.509 199.799L128.307 200.073C122.183 188.956 117.054 179.644 113.446 173.093C111.662 169.828 110.254 167.252 109.283 165.475C108.813 164.603 108.449 163.927 108.194 163.454C108.078 163.232 107.989 163.061 107.921 162.929C107.859 162.811 107.831 162.747 107.834 162.744Z" fill="#253138"/>
<path d="M45.0167 155.123L69.0627 201.422C69.0627 201.422 88.6055 200.567 96.8768 210.091L74.592 171.322C74.592 171.322 61.5242 155.123 45.0167 155.123Z" fill="#F5F5F5"/>
<path d="M45.0176 155.123C45.0176 155.123 45.2151 155.127 45.6272 155.142C46.0649 155.16 46.6831 155.187 47.4817 155.219C47.6852 155.231 47.9049 155.232 48.1315 155.257C48.3538 155.293 48.588 155.333 48.8334 155.373C49.3259 155.455 49.862 155.543 50.4408 155.64C51.0274 155.709 51.6301 155.907 52.2825 156.08C52.928 156.277 53.6394 156.408 54.3448 156.69C60.0921 158.602 67.799 163.238 74.7288 171.213L74.7416 171.231L74.7442 171.236C81.0883 182.252 88.7696 195.589 97.0623 209.986C97.1204 210.088 97.0853 210.217 96.9836 210.275C96.8998 210.324 96.7955 210.307 96.7288 210.242L96.7177 210.231C96.4202 209.934 96.097 209.614 95.7738 209.293C93.986 207.56 91.869 206.192 89.6186 205.225C87.3811 204.236 85.0709 203.472 82.7402 202.971C78.0932 201.927 73.4549 201.534 69.073 201.622H69.067C68.9892 201.623 68.9208 201.58 68.8874 201.515C61.8782 187.921 55.8897 176.308 51.6438 168.075C49.5499 163.996 47.8861 160.755 46.7378 158.517C46.1787 157.423 45.7469 156.576 45.4442 155.984C45.3066 155.711 45.1988 155.497 45.1185 155.337C45.0466 155.192 45.0124 155.121 45.0176 155.123C45.0227 155.126 45.0663 155.204 45.1467 155.355C45.2347 155.518 45.3519 155.737 45.5015 156.018C45.8178 156.616 46.2693 157.472 46.8524 158.577C48.0297 160.817 49.7337 164.06 51.8781 168.142C56.1522 176.314 62.1825 187.839 69.2397 201.331L69.055 201.224C73.4882 201.127 78.1377 201.517 82.8334 202.565C85.1846 203.067 87.5222 203.837 89.7931 204.839C92.075 205.819 94.2365 207.211 96.0713 208.989C96.4031 209.319 96.7331 209.648 97.0383 209.953L96.6938 210.197C88.4259 195.785 80.7677 182.436 74.4415 171.409L74.4578 171.432C71.0728 167.452 67.3818 164.337 63.9319 161.909C60.4503 159.515 57.138 157.85 54.2798 156.878C53.5804 156.591 52.875 156.454 52.2355 156.251C51.5899 156.071 50.9914 155.868 50.41 155.79C49.8355 155.687 49.3037 155.588 48.8146 155.5C48.5709 155.456 48.3384 155.414 48.1169 155.374C47.8955 155.346 47.6869 155.34 47.4894 155.322C46.0213 155.204 45.339 155.149 45.0176 155.123Z" fill="#253138"/>
<path d="M92.5139 255.703C91.9692 264.827 83.7584 271.407 74.175 270.402C64.5916 269.397 57.2637 261.188 57.8084 252.064C58.353 242.94 66.5639 236.36 76.1473 237.364C85.7306 238.369 93.0585 246.579 92.5139 255.703Z" fill="#0000E8"/>
<path d="M58.1546 256.101C58.2155 256.394 42.538 268.386 46.1973 271.671C49.8557 274.957 66.4199 269.238 80.7929 260.134C95.1659 251.03 108.486 239.542 105.253 235.796C102.021 232.05 84.2463 240.287 84.2463 240.287L86.2244 241.744C86.2244 241.744 96.9861 236.502 100.124 239.301C103.261 242.099 93.3245 250.712 79.5618 258.49C65.8 266.269 52.6469 271.366 50.8149 268.65C48.9837 265.933 58.8367 258.54 58.8367 258.54L58.1546 256.101Z" fill="#0000E8"/>
<path d="M58.1546 256.1C58.2155 256.393 42.538 268.386 46.1973 271.671C49.8557 274.957 66.4199 269.238 80.7929 260.134C95.1659 251.03 108.486 239.542 105.253 235.796C102.021 232.05 84.2463 240.287 84.2463 240.287L86.2244 241.744C86.2244 241.744 96.9861 236.502 100.124 239.301C103.261 242.099 93.3245 250.712 79.5618 258.49C65.8 266.269 52.6469 271.366 50.8149 268.65C48.9837 265.933 58.8367 258.54 58.8367 258.54L58.1546 256.1Z" fill="#0000E8"/>
<path d="M248.941 96.3534C249.126 88.5865 255.571 82.4399 263.338 82.6238C271.104 82.8084 277.251 89.2534 277.067 97.0203C276.882 104.787 270.437 110.934 262.671 110.75C254.904 110.565 248.756 104.12 248.941 96.3534Z" fill="#0000E8"/>
<path d="M267.587 91.2986C267.617 90.0323 268.668 89.0294 269.935 89.0593C271.203 89.0901 272.204 90.1409 272.174 91.4072C272.144 92.6743 271.093 93.6772 269.826 93.6473C268.56 93.6165 267.557 92.5657 267.587 91.2986Z" fill="black"/>
<path d="M272.176 96.6552C272.193 95.9181 272.804 95.335 273.541 95.353C274.278 95.3701 274.861 95.9814 274.843 96.7184C274.826 97.4554 274.215 98.0385 273.478 98.0214C272.741 98.0035 272.158 97.3922 272.176 96.6552Z" fill="black"/>
<path d="M270.385 100.753C270.656 100.76 270.872 100.985 270.866 101.257C270.859 101.529 270.633 101.744 270.362 101.737C270.089 101.731 269.875 101.506 269.882 101.234C269.888 100.962 270.113 100.747 270.385 100.753Z" fill="black"/>
<path d="M190.059 76.4681C189.317 64.9804 179.402 56.2696 167.914 57.0118C156.427 57.7539 147.716 67.6685 148.458 79.1563C148.996 87.4737 154.343 94.3317 161.612 97.2036C161.77 99.6686 161.951 102.452 161.951 102.452L180.181 101.273C180.181 101.273 180.101 98.3211 179.972 95.6894C186.446 91.8017 190.579 84.524 190.059 76.4681Z" fill="#0000E8"/>
<path d="M173.584 101.614C173.584 101.614 173.58 101.526 173.587 101.355C173.597 101.175 173.608 100.924 173.624 100.6C173.662 99.9362 173.715 98.9563 173.819 97.6969C173.923 96.4375 174.07 94.8968 174.354 93.1218C174.647 91.352 175.071 89.3359 175.868 87.2112C176.268 86.1501 176.738 85.06 177.377 83.9887C177.707 83.4629 178.129 82.9448 178.717 82.619C179.303 82.2907 180.06 82.2419 180.696 82.5557C181.011 82.7122 181.287 82.9909 181.407 83.3372C181.54 83.6766 181.53 84.0734 181.39 84.4094C181.111 85.0891 180.527 85.5867 179.872 85.8979C178.53 86.4674 176.94 86.4494 175.528 85.8714C174.113 85.296 172.934 84.0853 172.367 82.5908C172.094 81.8478 171.918 81.0253 172.089 80.1993C172.234 79.3803 172.972 78.6073 173.886 78.6321C174.339 78.6356 174.768 78.9177 174.992 79.2965C175.225 79.6735 175.309 80.1327 175.242 80.5687C175.098 81.4494 174.514 82.1393 173.913 82.7301C172.673 83.8981 170.926 84.6154 169.156 84.4496C167.398 84.2837 165.761 83.2346 164.941 81.7118C164.513 80.9637 164.363 80.0326 164.636 79.2007C164.775 78.7903 165.068 78.3962 165.489 78.2217C165.903 78.0311 166.386 78.0781 166.777 78.2568C167.173 78.4338 167.505 78.7458 167.714 79.1135C167.932 79.4786 168.047 79.8864 168.109 80.2908C168.221 81.1022 168.157 81.9196 167.947 82.6883C167.537 84.229 166.543 85.5713 165.24 86.3665C163.944 87.1693 162.398 87.4592 160.974 87.236C160.271 87.1274 159.545 86.8966 159.038 86.3639C158.542 85.8441 158.355 84.9822 158.792 84.3683C159.01 84.0716 159.355 83.8989 159.698 83.8502C160.042 83.8032 160.39 83.8511 160.703 83.9793C161.34 84.2444 161.754 84.7924 162.068 85.3242C162.664 86.4186 163.154 87.4874 163.647 88.5065C165.581 92.5917 166.984 95.9698 167.93 98.3125C168.402 99.4839 168.754 100.4 168.991 101.021C169.104 101.325 169.191 101.561 169.254 101.73C169.312 101.891 169.335 101.974 169.335 101.974C169.335 101.974 169.295 101.897 169.229 101.739C169.161 101.573 169.066 101.34 168.942 101.04C168.685 100.415 168.314 99.5104 167.837 98.3501C166.865 96.0203 165.436 92.655 163.484 88.5852C162.989 87.5746 162.486 86.493 161.898 85.4243C161.593 84.9095 161.191 84.3991 160.626 84.17C160.077 83.9425 159.332 83.9921 158.964 84.4932C158.603 84.9908 158.755 85.7594 159.197 86.2134C159.649 86.6888 160.33 86.912 161.009 87.0137C162.379 87.2249 163.872 86.941 165.116 86.1655C166.365 85.4003 167.318 84.1084 167.711 82.625C167.912 81.8863 167.971 81.0971 167.864 80.3276C167.76 79.5718 167.389 78.7963 166.675 78.4859C166.332 78.3303 165.929 78.2953 165.59 78.4526C165.245 78.5962 165 78.9186 164.876 79.2836C164.632 80.0301 164.76 80.8876 165.164 81.5904C165.939 83.032 167.508 84.0392 169.181 84.1948C170.864 84.3538 172.546 83.6672 173.739 82.5446C174.319 81.9769 174.869 81.3091 174.991 80.5311C175.051 80.1506 174.977 79.7505 174.777 79.4298C174.584 79.1075 174.245 78.8869 173.877 78.8827C173.509 78.8698 173.139 79.0314 172.865 79.2828C172.585 79.5324 172.412 79.8821 172.331 80.2532C172.173 81.0005 172.334 81.7922 172.596 82.5036C173.137 83.9366 174.266 85.1002 175.619 85.6534C176.965 86.2126 178.513 86.228 179.777 85.6936C180.391 85.4072 180.94 84.9301 181.186 84.3307C181.449 83.7331 181.168 83.0097 180.599 82.7455C180.042 82.4651 179.343 82.5019 178.816 82.7994C178.273 83.0961 177.868 83.5843 177.544 84.0939C176.915 85.1378 176.437 86.2271 176.037 87.2753C175.236 89.3795 174.8 91.3827 174.495 93.1458C174.199 94.9122 174.038 96.4486 173.919 97.7055C173.814 98.9555 173.732 99.9302 173.675 100.603C173.649 100.926 173.628 101.178 173.614 101.357C173.598 101.527 173.584 101.614 173.584 101.614Z" fill="#253138"/>
<path d="M178.997 104.739L163.343 105.75C162.695 105.792 162.134 105.3 162.092 104.652C162.051 104.003 162.543 103.443 163.192 103.401L178.845 102.39C179.494 102.348 180.054 102.841 180.095 103.49C180.137 104.138 179.646 104.697 178.997 104.739Z" fill="#253138"/>
<path d="M179.063 105.766L163.409 106.777C162.761 106.819 162.269 107.38 162.311 108.029C162.353 108.677 162.913 109.169 163.562 109.127L165.28 109.016L167.84 113.207C168.133 113.686 168.668 113.964 169.228 113.928L174.821 113.567C175.387 113.531 175.885 113.178 176.111 112.659L178.047 108.191L179.215 108.116C179.864 108.074 180.355 107.513 180.314 106.864C180.272 106.215 179.712 105.724 179.063 105.766Z" fill="#253138"/>
<path d="M175.844 113.048C175.827 113.088 175.422 112.933 174.747 112.786C174.073 112.637 173.118 112.527 172.07 112.623C171.022 112.724 170.105 113.009 169.47 113.28C168.833 113.55 168.464 113.778 168.441 113.742C168.425 113.72 168.762 113.436 169.394 113.116C170.024 112.795 170.965 112.471 172.047 112.368C173.128 112.269 174.113 112.412 174.791 112.61C175.472 112.807 175.856 113.023 175.844 113.048Z" fill="#455A63"/>
<path d="M178.083 108.241C178.088 108.312 175.261 108.551 171.771 108.777C168.28 109.003 165.448 109.129 165.443 109.059C165.438 108.988 168.264 108.747 171.755 108.522C175.245 108.296 178.079 108.17 178.083 108.241Z" fill="#455A63"/>
<path d="M177.224 110.161C177.228 110.195 176.643 110.297 175.693 110.418C174.743 110.54 173.426 110.68 171.97 110.795C170.511 110.91 169.189 110.977 168.231 111.006C167.273 111.034 166.681 111.027 166.679 110.992C166.677 110.956 167.267 110.9 168.221 110.825C169.252 110.746 170.532 110.648 171.949 110.539C173.364 110.424 174.643 110.322 175.675 110.238C176.628 110.163 177.22 110.125 177.224 110.161Z" fill="#455A63"/>
<path d="M116.474 59.1241H115.222C112.666 59.1241 110.594 57.0524 110.594 54.496V32.8346H121.102V54.496C121.102 57.0524 119.03 59.1241 116.474 59.1241Z" fill="#0000E8"/>
<path d="M110.594 32.8337L115.848 23.1979L121.102 32.8337H110.594Z" fill="#FFBD9D"/>
<path d="M113.767 27.0146C113.767 27.0146 115.363 29.4146 117.929 27.0146L115.848 23.1987L113.767 27.0146Z" fill="#0000E8"/>
<path d="M121.248 53.4409C121.248 53.5581 118.855 53.6538 115.906 53.6538C112.956 53.6538 110.564 53.5581 110.564 53.4409C110.564 53.3238 112.956 53.228 115.906 53.228C118.855 53.228 121.248 53.3238 121.248 53.4409Z" fill="#253138"/>
<path d="M121.14 51.8301C121.14 51.9472 118.795 52.0438 115.906 52.0438C113.014 52.0438 110.671 51.9472 110.671 51.8301C110.671 51.713 113.014 51.6181 115.906 51.6181C118.795 51.6181 121.14 51.713 121.14 51.8301Z" fill="#253138"/>
<path d="M113.678 32.9885C113.796 32.9885 113.89 37.1831 113.89 42.3559C113.89 47.5303 113.796 51.7233 113.678 51.7233C113.561 51.7233 113.465 47.5303 113.465 42.3559C113.465 37.1831 113.561 32.9885 113.678 32.9885Z" fill="#F9F9F9"/>
<path d="M117.93 32.9885C118.047 32.9885 118.142 37.1831 118.142 42.3559C118.142 47.5303 118.047 51.7233 117.93 51.7233C117.812 51.7233 117.717 47.5303 117.717 42.3559C117.717 37.1831 117.812 32.9885 117.93 32.9885Z" fill="#F9F9F9"/>
<path d="M154.977 202.004L176.476 198.817L166.197 184.254L160.685 184.58C156.974 184.798 153.704 187.091 152.234 190.504C151.452 192.317 151.235 194.323 151.61 196.261L154.977 202.004Z" fill="#E8505B"/>
<path d="M154.977 202.005L176.476 198.817L166.197 184.254L160.685 184.58C156.974 184.798 153.704 187.091 152.234 190.504C151.452 192.317 151.235 194.323 151.61 196.261L154.977 202.005Z" fill="#0000E8"/>
<path d="M247.331 225.829C247.552 226.444 247.794 227.173 248.039 228.045C248.249 228.793 248.323 229.573 248.272 230.347C248.207 231.288 248.071 232.534 247.786 233.193C247.432 234.008 248.254 234.828 248.951 234.421C249.647 234.014 250.677 231.791 250.613 228.929C250.55 226.067 253.469 229.498 254.555 230.728C255.642 231.959 259.18 235.609 259.823 235.575C260.766 235.525 260.886 234.505 259.773 233.301C258.645 232.083 255.575 228.252 256.253 227.71C256.921 227.175 262.364 233.517 262.364 233.517C262.364 233.517 263.308 235.061 264.113 234.46C265.562 233.377 259.28 227.062 258.667 226.476C258.24 226.068 258.956 225.453 259.39 225.915C259.836 226.39 264.672 232.366 266.159 231.277C267.3 230.442 261.039 226.035 260.725 224.238C260.41 222.44 265.133 228.062 266.191 227.22C266.584 226.906 266.834 226.617 263.656 223.78C262.113 222.403 256.249 218.299 256.249 218.299L238.601 167.772L224.974 175.577L247.331 225.829Z" fill="#FFBD9D"/>
<path d="M142.282 130.275L122.563 106.742H122.562C122.306 105.933 121.997 105.144 121.596 104.396C120.611 102.559 118.98 100.96 116.944 100.515C115.694 100.241 114.262 100.373 113.281 99.5503C112.842 99.1827 112.551 98.6594 112.09 98.3183C111.631 97.9771 110.865 97.9105 110.571 98.4021C110.362 98.7518 110.494 99.1998 110.653 99.5751C111.384 101.313 112.58 102.847 114.076 103.995C112.227 104.556 109.586 105.406 109.586 105.406C109.586 105.406 105.418 100.883 103.283 100.898C101.147 100.912 105.008 104.936 105.008 104.936C105.008 104.936 101.589 101.776 100.528 102.667C99.4682 103.557 102.185 105.903 102.185 105.903C101.323 105.442 100.377 104.965 99.4118 105.126C98.4456 105.286 97.6154 106.426 98.1353 107.256C98.3345 107.573 98.6756 107.769 99.0031 107.952C100.753 108.926 102.503 109.901 104.252 110.877C105.13 111.366 106.053 111.868 107.058 111.899C109.72 111.981 111.745 110.333 114.408 110.404C114.408 110.404 129.278 141.706 130.782 143.32C132.287 144.935 164.954 147.133 164.954 147.133L183.861 130.843L142.282 130.275Z" fill="#FFBD9D"/>
<path d="M201.511 300.782L221.649 309.554L210.864 334.663C208.529 333.486 209.292 318.428 209.292 318.428L196.159 313.339L201.511 300.782Z" fill="#0000E8"/>
<path d="M208.99 318.781C209.115 318.83 209.433 318.24 210.086 317.806C210.728 317.355 211.394 317.272 211.394 317.138C211.418 317.016 210.607 316.883 209.826 317.422C209.039 317.955 208.866 318.759 208.99 318.781Z" fill="#253138"/>
<path d="M208.948 321.881C209.055 321.961 209.492 321.519 210.189 321.325C210.881 321.112 211.487 321.247 211.534 321.123C211.602 321.015 210.922 320.622 210.058 320.88C209.194 321.13 208.833 321.828 208.948 321.881Z" fill="#253138"/>
<path d="M211.458 324.731C211.532 324.631 210.992 324.197 210.185 324.223C209.378 324.244 208.865 324.709 208.945 324.804C209.016 324.917 209.536 324.699 210.198 324.687C210.861 324.661 211.394 324.848 211.458 324.731Z" fill="#253138"/>
<path d="M206.126 317.289C206.259 317.285 206.331 316.65 206.677 315.977C207.007 315.298 207.472 314.858 207.394 314.749C207.336 314.64 206.655 314.972 206.26 315.77C205.859 316.565 206.003 317.307 206.126 317.289Z" fill="#253138"/>
<path d="M203.403 315.41C203.453 315.433 203.737 314.981 203.936 314.149C204.036 313.735 204.104 313.228 204.097 312.661C204.094 312.378 204.071 312.079 204.024 311.774C204 311.626 203.984 311.457 203.892 311.267C203.822 311.077 203.53 310.86 203.263 310.931C203.016 310.976 202.834 311.168 202.752 311.347C202.668 311.53 202.639 311.696 202.615 311.848C202.563 312.156 202.543 312.457 202.548 312.744C202.56 313.317 202.668 313.826 202.811 314.231C203.1 315.045 203.473 315.439 203.515 315.409C203.578 315.37 203.317 314.922 203.126 314.138C203.031 313.747 202.964 313.272 202.975 312.745C202.983 312.483 203.01 312.207 203.063 311.927C203.107 311.631 203.203 311.405 203.35 311.388C203.406 311.383 203.425 311.386 203.479 311.474C203.527 311.563 203.551 311.701 203.576 311.848C203.625 312.131 203.655 312.409 203.67 312.674C203.7 313.205 203.668 313.688 203.613 314.09C203.505 314.895 203.335 315.384 203.403 315.41Z" fill="#253138"/>
<path d="M203.647 315.327C203.685 315.292 203.35 314.86 202.575 314.473C202.19 314.284 201.695 314.119 201.125 314.054C200.84 314.023 200.536 314.016 200.223 314.046C199.912 314.086 199.502 314.124 199.244 314.576C199.128 314.82 199.234 315.109 199.369 315.251C199.503 315.407 199.642 315.487 199.775 315.579C200.049 315.751 200.339 315.868 200.622 315.943C201.19 316.093 201.729 316.065 202.151 315.964C203.013 315.752 203.379 315.304 203.342 315.275C203.298 315.209 202.878 315.534 202.091 315.641C201.704 315.694 201.226 315.684 200.739 315.531C200.495 315.456 200.25 315.346 200.022 315.197C199.772 315.043 199.6 314.849 199.67 314.761C199.721 314.635 200.014 314.51 200.271 314.498C200.551 314.467 200.825 314.463 201.086 314.48C201.606 314.518 202.071 314.635 202.445 314.775C203.198 315.058 203.6 315.386 203.647 315.327Z" fill="#253138"/>
<path d="M186.002 335.279L194.33 352.729L196.938 368.429C197.126 369.562 198.234 370.297 199.35 370.032C199.976 369.885 200.487 369.45 200.728 368.855C202.26 365.063 207.822 351.09 207.141 349.846C206.353 348.407 199.576 330.856 199.576 330.856L186.002 335.279Z" fill="#0000E8"/>
<path d="M199.917 360.516C199.839 360.609 199.025 359.864 197.754 359.839C196.482 359.776 195.621 360.463 195.55 360.363C195.515 360.327 195.675 360.089 196.062 359.846C196.443 359.602 197.067 359.392 197.768 359.415C198.471 359.44 199.077 359.693 199.441 359.964C199.809 360.234 199.955 360.482 199.917 360.516Z" fill="#253138"/>
<path d="M199.723 363.442C199.673 363.556 198.85 363.237 197.82 363.386C196.787 363.512 196.076 364.035 195.999 363.938C195.906 363.871 196.588 363.115 197.764 362.965C198.939 362.802 199.794 363.353 199.723 363.442Z" fill="#253138"/>
<path d="M200.895 356.437C200.85 356.558 199.585 356.061 197.964 356.152C196.341 356.218 195.131 356.834 195.073 356.718C195.002 356.637 196.204 355.803 197.944 355.728C199.683 355.636 200.958 356.349 200.895 356.437Z" fill="#253138"/>
<path d="M198.806 350.921C198.806 351.048 197.649 351.079 196.361 351.603C195.065 352.11 194.204 352.883 194.118 352.791C194.029 352.726 194.812 351.757 196.204 351.208C197.589 350.649 198.824 350.814 198.806 350.921Z" fill="#253138"/>
<path d="M196.49 345.737C196.482 345.863 195.238 345.717 193.926 346.379C192.6 347.013 191.957 348.088 191.852 348.018C191.806 347.994 191.9 347.686 192.201 347.269C192.498 346.852 193.029 346.349 193.739 345.999C194.449 345.65 195.173 345.537 195.685 345.555C196.199 345.572 196.5 345.686 196.49 345.737Z" fill="#253138"/>
<path d="M193.514 345.379C193.493 345.39 193.345 345.171 193.19 344.723C193.037 344.28 192.879 343.595 192.935 342.738C192.979 342.325 192.987 341.815 193.375 341.361C193.567 341.133 193.953 341.015 194.266 341.155C194.576 341.289 194.772 341.549 194.903 341.826C195.388 342.953 194.914 344.469 193.727 345.194C192.526 345.902 191.056 345.695 190.12 344.953C189.898 344.752 189.684 344.479 189.687 344.119C189.687 343.758 189.992 343.477 190.263 343.407C190.823 343.25 191.288 343.402 191.697 343.489C192.525 343.704 193.132 344.05 193.516 344.319C193.904 344.59 194.077 344.788 194.062 344.806C194.02 344.881 193.227 344.141 191.629 343.782C191.234 343.712 190.769 343.607 190.377 343.741C190.185 343.806 190.06 343.95 190.061 344.127C190.058 344.3 190.194 344.505 190.378 344.658C191.157 345.259 192.5 345.445 193.507 344.832C194.513 344.229 194.928 342.897 194.547 341.986C194.452 341.768 194.295 341.576 194.122 341.499C193.951 341.423 193.761 341.467 193.628 341.606C193.348 341.898 193.284 342.372 193.234 342.765C193.073 344.394 193.601 345.361 193.514 345.379Z" fill="#253138"/>
<path d="M214.065 302.915L191.231 287.545L198.788 213.337L177.159 200.706L157.38 196.123C157.38 196.123 149.119 213.308 145.446 224.308C137.634 247.706 132.15 256.091 133.401 273.05C133.798 278.418 153.62 291.846 166.139 299.305C166.31 301.018 166.529 302.514 166.803 303.748C171.08 323.086 184.136 348.802 184.136 348.802L203.98 339.577L197.577 317.649L204.246 321.539L214.065 302.915ZM164.983 255.065L167.647 243.17C167.083 250.733 166.569 258.623 166.201 266.19C164.918 262.693 164.481 258.806 164.983 255.065Z" fill="#253138"/>
<path d="M184.136 348.802C184.129 348.805 184.078 348.698 183.982 348.489C183.881 348.26 183.746 347.949 183.572 347.553C183.212 346.705 182.696 345.49 182.037 343.934C180.72 340.785 178.833 336.219 176.562 330.554C174.303 324.884 171.614 318.131 168.905 310.522C168.23 308.621 167.568 306.66 166.947 304.635C166.672 303.61 166.327 302.599 166.146 301.513C166.094 301.247 166.033 300.977 165.989 300.708L165.894 299.899C165.834 299.358 165.773 298.814 165.712 298.268C165.48 296.082 165.287 293.853 165.144 291.588C165.072 290.455 165.012 289.312 164.966 288.162C164.925 287.016 164.874 285.845 164.94 284.681C165.275 275.356 166.059 266.518 166.704 258.473C167.376 250.435 167.981 243.195 168.49 237.107C168.982 231.025 169.327 226.099 169.522 222.693C169.629 220.99 169.688 219.668 169.727 218.77C169.751 218.337 169.769 217.999 169.783 217.75C169.797 217.519 169.809 217.401 169.816 217.402C169.824 217.402 169.827 217.52 169.826 217.751C169.824 218 169.818 218.339 169.813 218.772C169.8 219.671 169.768 220.997 169.688 222.702C169.543 226.113 169.244 231.043 168.79 237.131C168.306 243.221 167.731 250.463 167.094 258.504C166.471 266.546 165.699 275.395 165.365 284.689C165.298 285.851 165.349 286.995 165.39 288.146C165.435 289.292 165.495 290.431 165.566 291.561C165.707 293.82 165.897 296.044 166.127 298.224C166.186 298.769 166.245 299.311 166.305 299.851L166.398 300.658C166.442 300.923 166.501 301.183 166.551 301.443C166.722 302.489 167.066 303.505 167.336 304.519C167.949 306.533 168.605 308.492 169.274 310.393C171.959 317.998 174.618 324.762 176.841 330.443C179.093 336.098 180.919 340.68 182.191 343.87C182.818 345.439 183.309 346.665 183.651 347.52C183.808 347.924 183.932 348.239 184.023 348.472C184.105 348.687 184.143 348.799 184.136 348.802Z" fill="#455A63"/>
<path d="M168.875 214.894C168.857 214.916 168.674 214.769 168.355 214.473C168.057 214.16 167.695 213.633 167.389 212.921C166.774 211.492 166.463 209.359 166.416 207.034C166.373 204.701 166.546 202.6 166.699 201.088C166.857 199.575 166.984 198.644 167.041 198.648C167.101 198.652 167.079 199.594 166.999 201.11C166.923 202.626 166.799 204.719 166.84 207.025C166.888 209.324 167.147 211.41 167.669 212.81C167.93 213.509 168.233 214.032 168.48 214.366C168.75 214.681 168.893 214.872 168.875 214.894Z" fill="#455A63"/>
<path d="M160.336 197.233C160.378 197.224 160.584 198.011 160.505 199.309C160.434 200.596 159.996 202.406 158.868 204.061C157.741 205.717 156.215 206.786 155.045 207.323C153.865 207.872 153.057 207.968 153.05 207.924C153.03 207.854 153.8 207.655 154.908 207.055C156.011 206.466 157.44 205.404 158.518 203.822C159.595 202.241 160.062 200.523 160.206 199.281C160.359 198.03 160.263 197.24 160.336 197.233Z" fill="#455A63"/>
<path d="M195.817 240.377C195.825 240.377 195.823 240.454 195.813 240.603C195.799 240.776 195.78 240.993 195.757 241.262C195.696 241.874 195.611 242.721 195.504 243.796C195.26 246.027 194.914 249.2 194.489 253.107C193.595 260.991 192.368 271.831 191.013 283.805C190.489 289.8 191.012 295.568 192.137 300.651C192.693 303.199 193.429 305.564 194.204 307.753C194.973 309.944 195.688 311.988 196.342 313.857C197.629 317.57 198.675 320.586 199.41 322.705C199.755 323.73 200.027 324.537 200.223 325.118C200.306 325.376 200.372 325.584 200.426 325.75C200.468 325.894 200.487 325.967 200.48 325.97C200.473 325.971 200.44 325.902 200.385 325.765C200.321 325.603 200.242 325.399 200.144 325.147C199.929 324.573 199.631 323.774 199.254 322.761C198.488 320.652 197.4 317.651 196.059 313.958C195.39 312.094 194.658 310.056 193.873 307.87C193.081 305.682 192.325 303.299 191.755 300.737C190.601 295.623 190.061 289.809 190.59 283.769C191.925 271.762 193.251 260.932 194.19 253.076C194.672 249.175 195.063 246.008 195.338 243.78C195.48 242.709 195.592 241.863 195.672 241.255C195.712 240.987 195.744 240.771 195.769 240.599C195.794 240.452 195.81 240.376 195.817 240.377Z" fill="#455A63"/>
<path d="M157.381 195.98L160.883 187.03L168.874 198.947L158.218 196.283" fill="#FFBD9D"/>
<path d="M241.019 169.076L231.532 147.811C230.399 144.393 228.271 143.862 226.489 141.877L202.727 128.476C185.409 121.382 175.98 145.171 175.98 145.171L160.24 181.074C141.729 187.211 154.835 201.426 154.835 201.426C154.835 201.426 149.8 192.674 154.752 189.517C159.936 186.211 165.685 194.921 171.208 203.195C177.728 212.963 198.914 219.308 198.914 219.308C201.392 216.69 200.7 207.55 202.64 202.645C203.256 201.09 217.927 167.106 217.927 167.106L223.614 180.886C223.614 180.886 230.905 172.338 234.438 170.98C237.971 169.62 241.019 169.076 241.019 169.076Z" fill="#0000E8"/>
<path d="M198.914 184.189C198.928 184.21 198.679 184.4 198.194 184.69C197.711 184.983 196.98 185.356 196.033 185.716C194.153 186.439 191.308 187.001 188.224 186.525C185.138 186.049 182.596 184.655 181.021 183.399C180.226 182.771 179.642 182.194 179.269 181.77C178.896 181.347 178.716 181.091 178.735 181.074C178.794 181.018 179.593 181.984 181.202 183.158C182.794 184.331 185.289 185.642 188.288 186.105C191.287 186.568 194.061 186.071 195.933 185.433C197.821 184.798 198.875 184.118 198.914 184.189Z" fill="#253138"/>
<path d="M159.535 150.467L174.199 151.852L197.659 127.055L183.861 126.581L159.292 129.006C159.292 129.006 161.468 139.246 159.535 150.467Z" fill="#0000E8"/>
<path d="M179.902 137.402C179.915 137.409 179.853 137.565 179.723 137.857C179.568 138.188 179.374 138.608 179.135 139.123C178.596 140.271 177.858 141.846 176.958 143.769C175.134 147.699 172.715 153.172 170.092 159.241C167.47 165.314 165.083 170.807 163.28 174.749C162.38 176.722 161.637 178.312 161.103 179.4C160.849 179.909 160.644 180.322 160.481 180.65C160.335 180.934 160.252 181.08 160.238 181.074C160.224 181.068 160.283 180.909 160.403 180.614C160.547 180.278 160.729 179.853 160.952 179.33C161.46 178.168 162.156 176.574 163.006 174.628C164.74 170.601 167.096 165.125 169.702 159.073C172.326 153.002 174.791 147.542 176.686 143.641C177.631 141.69 178.417 140.121 178.986 139.05C179.254 138.549 179.473 138.141 179.646 137.819C179.801 137.54 179.889 137.396 179.902 137.402Z" fill="#253138"/>
<path d="M224.661 144.614C224.702 144.686 223.791 145.16 222.551 146.216C221.926 146.738 221.248 147.435 220.57 148.266C219.909 149.112 219.258 150.101 218.709 151.212C218.176 152.331 217.804 153.456 217.55 154.498C217.318 155.546 217.191 156.51 217.168 157.323C217.109 158.951 217.299 159.959 217.216 159.971C217.188 159.977 217.126 159.73 217.038 159.274C216.989 159.046 216.944 158.766 216.924 158.437C216.901 158.108 216.85 157.733 216.868 157.318C216.852 156.485 216.949 155.494 217.167 154.412C217.407 153.338 217.78 152.177 218.329 151.026C218.891 149.884 219.572 148.873 220.266 148.019C220.981 147.179 221.696 146.487 222.361 145.985C222.676 145.713 223.002 145.519 223.274 145.335C223.544 145.146 223.793 145.009 224.001 144.906C224.414 144.693 224.646 144.588 224.661 144.614Z" fill="#253138"/>
<path d="M228.758 110.558L215 136.273C212.754 140.472 207.644 142.219 203.298 140.274C198.512 138.132 196.533 132.39 198.983 127.756C200.28 125.303 201.357 123.301 201.357 123.301C201.357 123.301 195.376 119.424 198.173 112.961C200.668 107.195 209.831 90.92 211.777 87.4786L223.371 92.6676C229.883 96.0508 232.32 104.142 228.758 110.558Z" fill="#FFBD9D"/>
<path d="M201.387 123.203C201.387 123.203 205.301 125.351 210.832 124.571C210.832 124.571 206.782 128.311 200.627 124.862L201.387 123.203Z" fill="#EB996D"/>
<path d="M205.806 102.642C205.573 103.119 205.782 103.711 206.276 103.965C206.769 104.217 207.358 104.037 207.592 103.56C207.827 103.083 207.615 102.491 207.123 102.238C206.63 101.984 206.04 102.165 205.806 102.642Z" fill="#253138"/>
<path d="M205.859 101.823C205.919 101.994 206.843 101.791 207.831 102.235C208.823 102.666 209.321 103.498 209.482 103.425C209.559 103.395 209.539 103.127 209.326 102.756C209.118 102.387 208.688 101.929 208.071 101.656C207.454 101.384 206.836 101.377 206.435 101.477C206.026 101.573 205.827 101.744 205.859 101.823Z" fill="#253138"/>
<path d="M215.047 107.188C214.813 107.665 215.023 108.257 215.516 108.51C216.01 108.763 216.599 108.583 216.833 108.106C217.067 107.629 216.856 107.037 216.364 106.784C215.87 106.53 215.281 106.711 215.047 107.188Z" fill="#253138"/>
<path d="M215.485 106.353C215.545 106.524 216.472 106.321 217.458 106.766C218.449 107.196 218.947 108.028 219.108 107.955C219.184 107.925 219.167 107.657 218.953 107.286C218.745 106.918 218.315 106.459 217.698 106.186C217.08 105.914 216.462 105.907 216.061 106.006C215.653 106.104 215.453 106.274 215.485 106.353Z" fill="#253138"/>
<path d="M208.623 112.074C208.652 112.02 208.085 111.639 207.147 111.066C206.907 110.928 206.689 110.77 206.725 110.579C206.747 110.37 206.973 110.146 207.227 109.907C207.738 109.402 208.272 108.874 208.833 108.32C211.093 106.049 212.849 104.137 212.757 104.046C212.665 103.956 210.758 105.723 208.498 107.994C207.947 108.558 207.421 109.093 206.919 109.607C206.695 109.851 206.386 110.103 206.345 110.538C206.329 110.757 206.453 110.977 206.595 111.093C206.735 111.214 206.876 111.281 206.997 111.343C207.975 111.845 208.594 112.128 208.623 112.074Z" fill="#253138"/>
<path d="M211.223 114.057C211.066 113.976 210.585 115.047 209.326 115.397C208.069 115.751 206.979 115.119 206.904 115.265C206.859 115.326 207.066 115.588 207.542 115.817C208.008 116.044 208.767 116.201 209.537 115.988C210.305 115.771 210.824 115.256 211.058 114.833C211.3 114.403 211.299 114.084 211.223 114.057Z" fill="#253138"/>
<path d="M216.961 102.368C216.939 102.68 217.981 102.993 219.078 103.652C220.187 104.289 220.971 105.046 221.232 104.874C221.353 104.79 221.302 104.464 221.041 104.035C220.783 103.607 220.295 103.093 219.634 102.704C218.973 102.317 218.287 102.143 217.787 102.126C217.285 102.107 216.977 102.221 216.961 102.368Z" fill="#253138"/>
<path d="M207.501 99.1271C207.574 99.4298 208.358 99.5007 209.182 99.8564C210.017 100.182 210.625 100.683 210.89 100.52C211.011 100.437 211.002 100.163 210.795 99.8154C210.591 99.4708 210.169 99.0741 209.599 98.8398C209.029 98.6064 208.451 98.5919 208.063 98.6936C207.671 98.7945 207.473 98.9834 207.501 99.1271Z" fill="#253138"/>
<path d="M224.432 114.412C224.562 114.414 229.433 115.082 227.326 119.414C225.219 123.745 221.305 120.736 221.358 120.609C221.411 120.481 224.432 114.412 224.432 114.412Z" fill="#FFBD9D"/>
<path d="M223.479 119.611C223.505 119.607 223.529 119.7 223.628 119.822C223.724 119.939 223.919 120.082 224.185 120.108C224.725 120.163 225.464 119.623 225.865 118.853C226.067 118.465 226.167 118.047 226.178 117.669C226.201 117.288 226.103 116.967 225.893 116.814C225.689 116.649 225.458 116.708 225.347 116.805C225.23 116.897 225.216 116.997 225.189 116.994C225.171 116.998 225.132 116.876 225.253 116.714C225.313 116.638 225.415 116.56 225.557 116.526C225.702 116.492 225.875 116.523 226.026 116.619C226.348 116.804 226.502 117.257 226.49 117.673C226.494 118.1 226.39 118.572 226.163 119.008C225.71 119.867 224.866 120.467 224.152 120.343C223.809 120.274 223.6 120.058 223.518 119.892C223.436 119.72 223.461 119.611 223.479 119.611Z" fill="#EB996D"/>
<path d="M226.944 115.358C226.346 114.895 224.91 114.995 224.344 115.495C223.777 115.995 223.396 116.677 222.829 117.178C222.263 117.678 221.366 117.958 220.765 117.498C220.352 117.182 220.215 116.601 220.299 116.087C220.381 115.572 220.649 115.108 220.92 114.663C222.097 112.727 223.439 110.885 224.447 108.855C225.454 106.826 226.12 104.546 225.823 102.3C225.526 100.053 224.111 97.866 221.975 97.1102C220.56 96.6091 218.99 96.7605 217.548 96.3432C215.839 95.849 214.391 94.5195 213.754 92.8582C213.673 92.6462 213.188 91.8861 213.188 91.8861C213.236 91.7801 213.747 90.9071 214.258 90.7344C218.064 89.4494 223.226 90.9251 226.381 93.4114C229.536 95.8969 231.745 99.8983 231.785 103.915C231.823 107.932 229.296 112.363 226.944 115.358Z" fill="#253138"/>
<path d="M226.985 114.923C228.188 112.876 230.14 111.395 231.631 109.547C233.122 107.699 234.146 105.096 233.085 102.972C232.722 102.247 232.142 101.638 231.839 100.886C231.534 100.129 231.533 99.2921 231.417 98.485C231.055 95.991 229.479 93.7021 227.277 92.4743C225.755 91.6253 223.999 91.2782 222.456 90.4668C220.013 89.1826 218.226 86.8023 215.659 85.7874C214.808 85.4505 213.811 85.2872 212.997 85.707C212.182 86.1268 211.745 87.3076 212.338 88.0053C212.233 87.1862 211.171 86.7356 210.419 87.0767C209.666 87.417 209.281 88.3131 209.332 89.1373C209.383 89.9615 209.792 90.7216 210.264 91.3988C211.824 93.6312 214.207 95.2719 216.849 95.9328L222.75 95.472L227.588 99.0578L231.17 104.758L224.675 113.195L226.985 114.923Z" fill="#253138"/>
</svg>
