<svg width="450" height="315" viewBox="0 0 450 315" fill="none" xmlns="http://www.w3.org/2000/svg">
<path d="M259.62 33.147C254.114 23.5058 237.522 31.5546 237.522 31.5546C237.522 31.5546 230.421 53.0297 227.09 54.4107C223.758 55.7918 229.624 34.8889 229.624 34.8889C222.781 36.0735 207.918 48.9923 207.918 48.9923C207.918 48.9923 214.524 69.9517 210.967 70.465C207.409 70.9786 206.057 51.5956 206.057 51.5956C200.107 55.3236 196.054 64.5726 196.054 64.5726C191.736 79.0073 210.251 83.6766 210.251 83.6766C210.251 83.6766 212.385 90.9916 210.065 100.694L210.064 100.694C210.064 100.694 209.451 102.536 209.104 105.476L210.864 104.992C210.885 104.477 210.923 103.973 210.984 103.484C210.983 103.48 210.984 103.477 210.985 103.474C210.986 103.467 210.987 103.46 210.988 103.453C211.037 103.146 211.109 102.708 211.202 102.174C211.202 102.173 211.202 102.172 211.202 102.172C211.202 102.171 211.203 102.17 211.203 102.169C211.465 100.96 211.624 100.077 211.707 99.4478C211.707 99.4457 211.707 99.4438 211.707 99.4419C212.453 95.6684 213.646 90.6907 214.958 89.3546C214.958 89.3546 214.691 89.1319 214.369 88.6444C214.557 88.8708 214.753 89.1069 214.958 89.3546C219.665 95.0323 235.016 91.9727 242.961 87.9286C250.905 83.8846 246.625 82.5053 241.096 79.8763C235.568 77.2475 226.361 80.873 223.168 80.1245C219.974 79.376 223.67 76.7328 229.379 75.6272C235.09 74.5218 239.355 79.3913 248.623 77.7723C257.89 76.1536 260.322 57.1246 260.322 57.1246C254.586 60.7933 242.489 60.4016 241.494 58.3511C240.5 56.3008 257.132 51.959 259.546 50.5978C261.961 49.2369 265.128 42.7882 259.62 33.147Z" fill="#DFEBFC"/>
<path d="M63.6446 35.4715C71.1422 22.0818 94.0646 33.4321 94.0646 33.4321C94.0646 33.4321 104.037 63.4139 108.638 65.3652C113.239 67.3168 104.972 38.1422 104.972 38.1422C114.407 39.8485 134.993 57.971 134.993 57.971C134.993 57.971 126.084 87.1226 130.987 87.8669C135.891 88.6113 137.579 61.6135 137.579 61.6135C145.807 66.8566 151.472 79.7773 151.472 79.7773C157.55 99.9264 132.091 106.282 132.091 106.282C132.091 106.282 129.218 116.458 132.501 129.996L132.501 129.996C132.501 129.996 133.363 132.568 133.867 136.668L131.438 135.979C131.406 135.261 131.347 134.559 131.26 133.876C131.261 133.871 131.26 133.868 131.258 133.863C131.257 133.854 131.255 133.844 131.254 133.834C131.183 133.405 131.08 132.795 130.948 132.049C130.948 132.048 130.948 132.047 130.948 132.046C130.948 132.045 130.946 132.044 130.947 132.043C130.575 130.356 130.347 129.124 130.228 128.246C130.227 128.244 130.227 128.241 130.227 128.238C129.167 122.974 127.479 116.028 125.66 114.156C125.66 114.156 126.025 113.848 126.464 113.171C126.208 113.485 125.94 113.813 125.66 114.156C119.229 122.029 98.0587 117.641 87.0811 111.941C76.1035 106.242 81.9862 104.354 89.5761 100.736C97.1659 97.1178 109.878 102.245 114.27 101.228C118.662 100.21 113.549 96.4973 105.674 94.9107C97.8003 93.3239 91.9694 100.074 79.1914 97.7432C66.4136 95.4121 62.8938 68.8769 62.8938 68.8769C70.8257 74.0359 87.4829 73.5884 88.8346 70.739C90.1862 67.8898 67.2399 61.7049 63.9029 59.7887C60.5659 57.8725 56.1466 48.8609 63.6446 35.4715Z" fill="#DFEBFC"/>
<path d="M420.095 31.2911C413.832 9.29284 377.025 16.4634 377.025 16.4634C377.025 16.4634 352.552 55.2312 345.275 56.2056C337.997 57.1797 359.742 18.8919 359.742 18.8919C345.594 17.6221 309.86 35.3484 309.86 35.3484C309.86 35.3484 312.829 80.3367 305.523 79.4739C298.218 78.6112 304.91 39.5199 304.91 39.5199C291.302 43.7577 278.788 59.9284 278.788 59.9284C263.24 86.2272 297.715 105.254 297.715 105.254C297.715 105.254 298.411 120.865 289.116 138.848C289.116 138.848 289.115 138.849 289.115 138.849C289.115 138.849 287.006 142.172 284.897 147.81L288.624 147.781C288.913 146.772 289.234 145.796 289.591 144.858C289.591 144.851 289.593 144.846 289.598 144.841C289.603 144.827 289.609 144.814 289.614 144.8C289.86 144.218 290.214 143.389 290.656 142.38C290.657 142.378 290.657 142.377 290.658 142.376C290.658 142.374 290.66 142.373 290.66 142.371C291.764 140.116 292.509 138.451 292.977 137.249C292.978 137.245 292.979 137.242 292.98 137.238C296.284 130.16 301.058 120.935 304.307 118.983C304.307 118.983 303.885 118.401 303.483 117.266C303.746 117.813 304.02 118.384 304.307 118.983C310.899 132.711 342.835 134.764 360.551 130.954C378.268 127.144 370.443 122.152 360.747 114.026C351.051 105.9 331.033 108.215 325.059 105.045C319.085 101.876 327.694 98.5949 339.557 99.4228C351.42 100.251 357.528 112.146 376.697 113.836C395.865 115.527 409.891 79.1356 409.891 79.1356C396.739 83.3697 372.928 76.203 371.946 71.6177C370.964 67.0322 406.062 67.2234 411.51 65.8038C416.957 64.3843 426.358 53.2893 420.095 31.2911Z" fill="#DFEBFC"/>
<path d="M127.867 220.749C127.867 220.749 149.919 225.82 148.671 229.944C147.424 234.067 124.528 222.488 124.528 222.488C124.528 222.488 106.921 237.789 104.295 245.686C104.295 245.686 129.427 242.476 127.223 246.177C125.019 249.878 99.0006 254.45 99.0006 254.45C99.0006 254.45 86.6775 272.671 96.7533 280.922C106.829 289.174 114.834 286.575 116.845 283.958C118.857 281.341 126.922 262.407 129.098 263.953C131.274 265.499 129.491 279.904 124.211 286.045C124.211 286.045 146.554 286.569 150.127 275.876C153.701 265.183 148.885 259.257 151.211 252.688C153.538 246.119 157.261 242.213 157.533 246.132C157.804 250.05 151.933 260.312 153.937 267.333C155.942 274.355 156.738 279.674 162.858 270.983C168.977 262.293 175.331 244.648 169.667 238.054C169.421 237.767 169.185 237.492 168.959 237.23C169.461 237.698 169.667 238.054 169.667 238.054C171.447 236.738 177.397 236.215 181.876 236.007C182.616 236.023 183.663 235.992 185.108 235.898C185.748 235.884 186.27 235.877 186.634 235.873C196.342 236.147 209.76 244.205 209.76 244.205L211.194 242.404C198.87 231.563 183.617 234.285 183.617 234.285C172.026 235.298 164.004 231.46 164.004 231.46C164.004 231.46 162.05 208.683 144.644 211.217C144.644 211.217 133.255 214.365 127.867 220.749Z" fill="#DFEBFC"/>
<path d="M213.214 152.687L201.959 286.51C201.959 286.51 200.78 294.621 206.814 294.636C216.735 294.66 256.195 294.636 256.195 294.636C256.195 294.636 248.728 292.947 248.818 289.148C248.925 284.669 261.973 151.42 261.973 151.42L213.214 152.687ZM259.396 292.208C257.445 292.214 219.756 292.332 210.095 292.208C205.884 292.155 205.146 288.464 205.111 286.075C205.093 284.93 205.239 284.083 205.239 284.083L205.531 280.605L206.277 271.739L206.936 263.907L207.783 253.843L208.496 245.348L216.493 150.257L265.252 148.992C265.252 148.992 259.757 204.756 255.87 245.348C255.436 249.87 255.023 254.207 254.641 258.255C254.517 259.547 254.399 260.811 254.283 262.041C253.922 265.882 253.593 269.409 253.306 272.522C253.155 274.164 253.015 275.689 252.889 277.086C252.393 282.56 252.103 286.056 252.099 286.72C252.097 287.108 252.13 287.468 252.194 287.804C252.994 292.068 258.664 292.208 259.396 292.208ZM94.8001 79.8651L122.215 189.985L125.968 205.066L138.737 256.357H375.955L328.893 79.8651H94.8001Z" fill="#D76713"/>
<path d="M259.396 292.208C257.445 292.214 219.756 292.332 210.095 292.208C205.884 292.156 205.146 288.464 205.111 286.075C205.093 284.93 205.239 284.083 205.239 284.083L205.531 280.605L206.277 271.739L206.936 263.907L207.783 253.843L208.496 245.348L216.493 150.257L265.252 148.992C265.252 148.992 259.757 204.756 255.87 245.348C255.436 249.87 255.023 254.207 254.641 258.255C254.517 259.547 254.399 260.811 254.283 262.041C253.922 265.882 253.593 269.409 253.306 272.522C253.155 274.164 253.015 275.689 252.889 277.086C252.393 282.56 252.103 286.056 252.099 286.72C252.097 287.108 252.13 287.468 252.194 287.804C252.994 292.068 258.664 292.208 259.396 292.208ZM94.8001 79.8651L122.215 189.985L125.968 205.066L138.737 256.357H375.955L328.893 79.8651H94.8001Z" fill="#F89646"/>
<path d="M94.8001 79.8651L122.215 189.985L125.968 205.066L138.737 256.357H375.955L328.893 79.8651H94.8001Z" fill="#F89646"/>
<path d="M94.7996 79.8651L91.0004 81.1315L133.686 260.188L138.737 256.357L94.7996 79.8651ZM133.686 260.188H369.444L375.954 256.357H138.737L133.686 260.188ZM216.477 294.687H267.522V292.262H216.477V294.687Z" fill="#F89646"/>
<path d="M133.686 260.188H369.444L375.954 256.357H138.737L133.686 260.188ZM216.477 294.687H267.522V292.261H216.477V294.687Z" fill="#D76713"/>
<path d="M216.477 294.687H267.522V292.261H216.477V294.687Z" fill="#F0A24F"/>
<path d="M254.546 260.187L254.283 262.041L206.277 271.74L206.936 263.907L207.25 260.187H254.546ZM259.396 292.208C257.445 292.214 219.756 292.332 210.095 292.208C205.884 292.156 205.146 288.464 205.111 286.075L252.889 277.086C252.393 282.56 252.103 286.056 252.099 286.721C252.097 287.108 252.13 287.468 252.194 287.804C252.994 292.069 258.664 292.208 259.396 292.208Z" fill="#D76713"/>
<path d="M242.943 220.628L138.737 256.357L125.968 205.066L242.943 220.628Z" fill="#EC7C2B"/>
<path d="M263.635 239.64C262.959 236.161 259.59 233.341 256.112 233.341C252.633 233.341 250.361 236.161 251.038 239.64C251.714 243.118 255.082 245.938 258.561 245.938C262.039 245.938 264.311 243.118 263.635 239.64ZM94.7997 79.8651H328.892L366.874 221.709H130.112L94.7997 79.8651ZM355.834 215.562H136.652L111.83 116.68L109.928 109.097L108.303 102.629L104.497 87.4631H320.519L324.7 102.629L326.483 109.097L328.573 116.68L355.834 215.562ZM324.7 102.629H108.304L104.497 87.4631H320.519L324.7 102.629Z" fill="#D76713"/>
<path d="M94.7997 79.8651H328.892L366.874 221.709H130.112L94.7997 79.8651ZM355.834 215.562H136.652L111.83 116.68L109.928 109.097L108.303 102.629L104.497 87.4631H320.519L324.7 102.629L326.483 109.097L328.573 116.68L355.834 215.562ZM324.7 102.629H108.304L104.497 87.4631H320.519L324.7 102.629Z" fill="#699DED"/>
<path d="M355.834 215.562H136.652L111.83 116.68L109.927 109.097L108.303 102.629L104.497 87.4631H320.519L324.7 102.629L326.483 109.097L328.573 116.68L355.834 215.562ZM324.7 102.629H108.303L104.497 87.4631H320.519L324.7 102.629Z" fill="#E3ECF8"/>
<path d="M324.7 102.629H108.304L104.497 87.4631H320.519L324.7 102.629Z" fill="#AECDFA"/>
<path d="M307.55 206.79H145.196L120.489 109.831H280.553L307.55 206.79Z" fill="#C9DFFF"/>
<path d="M328.547 132.391H291.749L285.021 109.831H322.265L328.547 132.391Z" fill="#D2E2FB"/>
<path d="M326.764 195.437C324.636 195.437 323.411 197.168 324.032 199.295C324.653 201.422 326.889 203.153 329.016 203.153C331.143 203.153 332.368 201.422 331.747 199.295C331.127 197.168 328.891 195.437 326.764 195.437ZM313.377 125.516C312.21 125.516 311.539 126.464 311.879 127.631C312.22 128.797 313.445 129.746 314.612 129.746C315.778 129.746 316.449 128.797 316.109 127.631C315.769 126.464 314.543 125.516 313.377 125.516ZM305.973 125.516C304.806 125.516 304.135 126.464 304.475 127.631C304.816 128.797 306.041 129.746 307.207 129.746C308.374 129.746 309.046 128.797 308.705 127.631C308.365 126.464 307.139 125.516 305.973 125.516ZM298.304 125.516C297.137 125.516 296.466 126.464 296.806 127.631C297.146 128.797 298.372 129.746 299.538 129.746C300.704 129.746 301.376 128.797 301.036 127.631C300.695 126.464 299.47 125.516 298.304 125.516Z" stroke="#A8D29F" stroke-width="1.56"/>
<path d="M339.792 195.437C337.665 195.437 336.439 197.168 337.06 199.295C337.681 201.422 339.917 203.153 342.044 203.153C344.171 203.153 345.397 201.422 344.776 199.295C344.155 197.168 341.919 195.437 339.792 195.437ZM320.52 125.516C319.354 125.516 318.682 126.464 319.022 127.631C319.363 128.797 320.588 129.746 321.755 129.746C322.921 129.746 323.592 128.797 323.252 127.631C322.912 126.464 321.686 125.516 320.52 125.516Z" stroke="#F0A24F" stroke-width="1.56"/>
<path d="M113.433 94.3169C113.172 93.2697 113.809 92.421 114.856 92.421C115.904 92.421 116.964 93.2697 117.225 94.3169C117.486 95.364 116.849 96.2128 115.802 96.2128C114.755 96.2128 113.694 95.364 113.433 94.3169ZM126.516 94.3169C126.255 93.2697 126.892 92.421 127.939 92.421C128.986 92.421 130.047 93.2697 130.307 94.3169C130.569 95.364 129.931 96.2128 128.885 96.2128C127.837 96.2128 126.777 95.364 126.516 94.3169ZM119.733 94.3169C119.471 93.2697 120.109 92.421 121.156 92.421C122.203 92.421 123.263 93.2697 123.524 94.3169C123.785 95.364 123.148 96.2128 122.101 96.2128C121.054 96.2128 119.994 95.364 119.733 94.3169Z" fill="#E9F3FD"/>
<path d="M222.768 117.275H253.4M192.536 196.475H222.664H192.536ZM192.536 196.475H222.664H192.536ZM252.78 187.7H233.691H252.78ZM252.78 187.7H233.691H252.78ZM277.364 196.475H260.265H277.364ZM277.364 196.475H260.265H277.364ZM180.498 172.287H210.819H180.498ZM180.498 172.287H210.819H180.498ZM247.431 172.287H265.519H247.431ZM247.431 172.287H265.519H247.431ZM222.736 163.737H240.416H222.736ZM222.736 163.737H240.416H222.736ZM243.598 163.737H274.23H243.598ZM243.598 163.737H274.23H243.598ZM230.678 141.575H212.962H230.678ZM230.678 141.575H212.962H230.678ZM233.662 141.575H264.294H233.662ZM233.662 141.575H264.294H233.662ZM193.093 126.275H225.715H193.093ZM193.093 126.275H225.715H193.093ZM222.768 117.275H253.4H222.768Z" stroke="#78ACEA" stroke-width="8.15961"/>
<path d="M228.677 126.275C228.677 126.275 230.82 126.275 233.534 126.275M224.046 196.475C224.046 196.475 228.215 196.475 233.495 196.475H224.046ZM224.046 196.475C224.046 196.475 228.215 196.475 233.495 196.475H224.046ZM243.946 172.287C243.946 172.287 239.833 172.287 234.623 172.287H243.946ZM243.946 172.287C243.946 172.287 239.833 172.287 234.623 172.287H243.946ZM228.677 126.275C228.677 126.275 230.82 126.275 233.534 126.275H228.677Z" stroke="#F1A34F" stroke-width="8.15961"/>
<path d="M217.826 117.556H198.921M164.308 187.841H227.258H164.308ZM164.308 187.841H227.258H164.308ZM215.114 163.737H152.441H215.114ZM215.114 163.737H152.441H215.114ZM217.826 117.556H198.921H217.826Z" stroke="#1C468A" stroke-width="8.15961"/>
<path d="M233.927 150.181C233.927 150.181 236.746 150.181 240.141 150.181M183.067 196.475C183.067 196.475 180.007 196.475 176.321 196.475H183.067ZM183.067 196.475C183.067 196.475 180.007 196.475 176.321 196.475H183.067ZM151.216 172.287C151.216 172.287 154.294 172.287 158 172.287H151.216ZM151.216 172.287C151.216 172.287 154.294 172.287 158 172.287H151.216ZM231.048 150.181C231.048 150.181 225.608 150.172 219.055 150.161L231.048 150.181ZM231.048 150.181C231.048 150.181 225.608 150.172 219.055 150.161L231.048 150.181ZM233.927 150.181C233.927 150.181 236.746 150.181 240.141 150.181H233.927Z" stroke="white" stroke-width="8.15961"/>
<path d="M311.125 112.545H289.736M314.638 119.89H293.069H314.638ZM314.638 119.89H293.069H314.638ZM291.882 117.442H313.451H291.882ZM291.882 117.442H313.451H291.882ZM312.323 115.116H290.901H312.323ZM312.323 115.116H290.901H312.323ZM311.125 112.545H289.736H311.125Z" stroke="white" stroke-width="2.54988" stroke-dasharray="11.22 2.04"/>
<path d="M293.917 138.537H328.313M333.963 150.35H299.277H333.963ZM333.963 150.35H299.277H333.963ZM297.367 146.412H332.053H297.367ZM297.367 146.412H332.053H297.367ZM330.239 142.671H295.79H330.239ZM330.239 142.671H295.79H330.239ZM293.917 138.537H328.313H293.917Z" stroke="#78ACEA" stroke-width="4.0798" stroke-dasharray="20.4 2.04"/>
<path d="M305.452 182.525H335.419M307.899 186.659H343.277H307.899Z" stroke="#78ACEA" stroke-width="4.0798" stroke-dasharray="20.4 2.04"/>
<path d="M302.226 171.275H332.193M304.673 175.41H340.051H304.673Z" stroke="#78ACEA" stroke-width="4.0798" stroke-dasharray="20.4 2.04"/>
<path d="M299 160.025H328.967M301.447 164.159H336.825H301.447Z" stroke="#78ACEA" stroke-width="4.0798" stroke-dasharray="20.4 2.04"/>
<path d="M73.4351 198.717C73.4351 198.717 77.3072 199.775 79.7982 199.044C82.2889 198.311 86.5224 199.603 87.1891 200.528C87.8557 201.453 81.2394 199.028 82.2199 201.597C85.4434 202.569 84.3172 203.264 81.2492 202.753C80.1425 202.568 78.7896 203.479 77.9312 203.139C75.1038 202.019 71.3873 201.94 71.3873 201.94L73.4351 198.717Z" fill="#E39962"/>
<path d="M39.4374 171.391C41.223 180.783 44.8484 196.043 49.8263 197.957C53.4065 199.333 69.2291 202.453 73.9095 202.766C73.9095 202.766 75.0561 201.836 74.7767 198.05C74.7767 198.05 58.1995 191.964 55.8443 188.654C52.3394 183.728 58.0202 168.531 53.6222 163.904C49.2242 159.278 38.6202 167.093 39.4374 171.391Z" fill="#4975CA"/>
<path d="M41.4961 289.244C40.4115 289.244 39.524 288.357 39.524 287.272V238.182C39.524 237.098 40.4115 236.21 41.4961 236.21H43.6117C44.6963 236.21 45.5839 237.098 45.5839 238.182V287.272C45.5839 288.357 44.6963 289.244 43.6117 289.244H41.4961ZM23.8537 292.731C25.8139 288.673 33.4423 285.648 42.554 285.648C51.6655 285.648 59.2939 288.673 61.2542 292.731H23.8537ZM28.8337 278.973C28.5452 278.973 28.3091 278.737 28.3091 278.449V277.361C28.3091 277.072 28.5452 276.836 28.8337 276.836H56.2742C56.5625 276.836 56.7986 277.072 56.7986 277.361V278.449C56.7986 278.737 56.5625 278.973 56.2742 278.973H28.8337Z" fill="#2B468A"/>
<path d="M75.9033 285.312C75.9033 285.312 76.3584 292.653 77.7785 292.758C77.9674 292.772 84.9815 292.772 84.9815 292.772L93.9353 292.72C93.9353 292.72 93.8768 290.562 91.2595 290.106C88.6422 289.65 84.2615 287.811 82.6759 284.352C81.008 280.713 75.9033 285.312 75.9033 285.312ZM40.441 231.378C41.7194 233.546 43.1978 235.578 44.7216 237.502C49.4311 243.448 54.5578 248.35 55.4509 252.984C55.6283 253.907 55.9103 254.902 56.2788 255.95C56.6518 257.011 57.1128 258.127 57.6449 259.281C59.6435 263.622 62.6319 268.486 65.6161 272.908C70.7747 280.552 75.6253 286.93 75.6253 286.93L84.5208 286.55C84.1646 285.659 80.2847 275.105 75.0945 262.207C72.9869 256.972 70.7459 251.402 68.5835 246.032C68.2954 245.314 68.0074 244.6 67.7221 243.892C67.0611 242.248 66.4106 240.631 65.7755 239.055C60.902 226.944 57.0204 217.301 57.0204 217.301C57.0204 217.301 37.542 209.922 35.5191 214.703C33.8511 218.646 35.2099 222.508 40.441 231.378ZM55.3049 264.342C55.3049 264.342 49.1173 268.317 49.7177 269.609C49.7975 269.78 53.2169 275.905 53.2169 275.905L57.6271 283.697C57.6271 283.697 59.4823 282.594 58.6046 280.087C57.7271 277.579 57.1975 272.858 59.4451 269.787C61.8094 266.557 55.3049 264.342 55.3049 264.342Z" fill="#15355F"/>
<path d="M64.0175 214.017C64.0175 214.017 88.1253 229.028 90.8545 239.262C93.5838 249.497 58.3317 271.33 58.3317 271.33C58.3317 271.33 54.4654 267.919 53.783 265.417C53.783 265.417 69.7175 246.327 73.1739 242.047C75.2967 239.419 41.7863 232.949 37.6925 226.581C33.5986 220.213 35.0644 214.855 35.0644 214.855L64.0175 214.017ZM17.535 247.001H67.5729C68.5737 247.001 69.3925 246.182 69.3925 245.182V235.174C69.3925 234.173 68.5737 233.354 67.5729 233.354H17.535C16.5342 233.354 15.7154 234.173 15.7154 235.174V245.182C15.7154 246.182 16.5342 247.001 17.535 247.001Z" fill="#1C4689"/>
<path d="M17.535 247.001H67.5729C68.5737 247.001 69.3924 246.182 69.3924 245.182V235.174C69.3924 234.173 68.5737 233.354 67.5729 233.354H17.535C16.5342 233.354 15.7154 234.173 15.7154 235.174V245.182C15.7154 246.182 16.5342 247.001 17.535 247.001Z" fill="#ED9748"/>
<path d="M52.3708 160.425C54.7721 161.912 56.0954 163.8 56.0954 163.8C50.2384 165.315 40.5283 159.888 40.5283 159.888C40.5283 159.888 44.2985 157.355 45.6952 151.788C45.7659 151.507 45.8303 151.22 45.8871 150.925C46.0701 149.987 48.5894 148.132 50.0853 148.946C51.5813 149.759 53.3686 154.296 53.3686 154.296C53.3686 154.296 53.2673 155.959 52.7075 158.82C52.6102 159.319 52.4988 159.855 52.3708 160.425ZM53.3688 154.296C53.3688 154.296 53.2673 155.959 52.7078 158.82C48.3387 157.408 46.357 153.462 45.6952 151.788C45.5069 151.316 45.4254 151.023 45.4254 151.023C45.4254 151.023 45.9409 150.067 46.1962 149.913C46.9125 149.478 48.8826 148.344 49.9915 149.022C51.7727 150.11 53.3688 154.296 53.3688 154.296Z" fill="#E39962"/>
<path d="M53.3688 154.296C53.3688 154.296 53.2672 155.959 52.7077 158.82C48.3387 157.408 46.357 153.462 45.6952 151.788C45.5068 151.316 45.4254 151.023 45.4254 151.023C45.4254 151.023 45.9409 150.067 46.1962 149.912C46.9125 149.478 48.8825 148.344 49.9915 149.022C51.7727 150.11 53.3688 154.296 53.3688 154.296Z" fill="#D58D5D"/>
<path d="M34.3261 188.08C35.165 199.364 34.0615 216.525 35.0131 219.498C35.8345 222.062 45.1935 220.538 48.9294 219.681C50.3121 219.365 51.9868 218.912 53.7165 218.377C58.5414 216.883 63.7986 214.75 64.3628 213.166C64.3846 213.103 64.4033 213.043 64.4148 212.984C64.4669 212.754 64.4552 212.538 64.4047 212.32C64.2166 211.513 63.4921 210.639 63.4067 208.64C63.3112 206.409 63.3257 203.781 63.242 200.955C63.2375 200.637 63.2333 200.29 63.1984 199.973L63.197 199.857C63.1956 199.796 63.1942 199.737 63.1928 199.676C63.1119 196.525 62.9469 193.211 62.7559 189.925C62.6345 187.861 62.4941 185.818 62.3322 183.86C61.9112 178.805 61.3442 174.31 60.5938 171.468C59.3674 166.835 56.6628 163.814 54.2011 161.6L52.4206 160.073C50.4335 160.506 48.0846 160.219 45.9601 159.212C43.6606 158.12 42.8666 157.337 42.4658 157.633C37.1549 161.73 33.3354 174.285 34.3261 188.08ZM53.7165 218.377C58.5414 216.883 63.7986 214.75 64.3628 213.166C64.3843 213.104 64.4031 213.043 64.4148 212.984C64.412 212.763 64.4089 212.541 64.4047 212.32C64.2166 211.513 63.4921 210.639 63.4067 208.641C63.3112 206.409 63.3257 203.781 63.242 200.955C63.2375 200.637 63.2331 200.29 63.1984 199.973L63.197 199.857C63.1956 199.796 63.194 199.737 63.1928 199.676L44.968 191.411C44.968 191.411 43.9178 206.099 53.7165 218.377Z" fill="#739AEF"/>
<path d="M53.7165 218.377C58.5414 216.883 63.7987 214.75 64.3628 213.166C64.3844 213.104 64.4031 213.043 64.4148 212.984C64.412 212.763 64.4089 212.541 64.4047 212.32C64.2166 211.513 63.4921 210.639 63.4067 208.641C63.3112 206.409 63.3258 203.781 63.242 200.955C63.2375 200.637 63.2331 200.29 63.1985 199.973L63.1971 199.857C63.1956 199.796 63.194 199.737 63.1928 199.676L44.968 191.411C44.968 191.411 43.9178 206.099 53.7165 218.377Z" fill="#4975CA"/>
<path d="M52.104 156.737C52.104 156.737 43.6886 154.146 46.2138 148.249C48.7386 142.351 49.353 138.045 54.8327 139.45C60.3124 140.854 60.385 143.444 59.9647 145.551C59.5443 147.658 54.3582 157.258 52.104 156.737ZM46.0405 148.656C46.0405 148.656 50.5249 141.349 58.1038 143.861C63.295 145.581 63.1411 139.439 63.0299 138.42C63.0299 138.42 58.9541 137.288 54.71 136.253C45.8019 134.082 45.8664 147.117 46.0405 148.656Z" fill="#E39962"/>
<path d="M45.7858 148.828C45.7858 148.828 50.3328 141.44 58.0177 143.98C63.2817 145.719 63.1255 139.51 63.0127 138.479C63.0127 138.479 58.8798 137.336 54.5762 136.289C45.5434 134.094 45.6092 147.272 45.7858 148.828Z" fill="#2B468A"/>
<path d="M91.4591 207.453L92.2992 207.726L99.4476 185.726L98.6074 185.453L91.4591 207.453ZM68.0615 205.756L92.3303 206.274L92.2994 207.726L68.0303 207.208L68.0615 205.756Z" fill="#4975CA"/>
<path d="M70.6689 204.436C70.6689 204.436 74.4354 205.862 76.9822 205.393C79.5291 204.924 83.6355 206.614 84.2189 207.588C84.8023 208.562 84.5119 208.892 83.2586 209.067C82.005 209.241 77.4825 210.604 74.7627 209.224C72.0427 207.843 68.3453 207.393 68.3453 207.393L70.6689 204.436Z" fill="#E39962"/>
<path d="M40.898 167.042C40.898 167.042 41.8195 198.479 48.7237 202.051C52.1302 203.814 67.5127 208.66 72.13 209.487C72.13 209.487 73.3723 208.689 73.512 204.895C73.512 204.895 57.7065 197.018 55.7306 193.469C52.7901 188.187 55.9494 172.808 52.0881 167.725C48.2271 162.642 45.2464 160.749 40.898 167.042Z" fill="#739AEF"/>
<path d="M303.194 294.009C303.194 294.009 303.546 291.264 304.362 289.631C305.178 287.998 310.373 289.037 310.373 289.037C310.373 289.037 311.412 289.928 311.635 294.083L303.194 294.009Z" fill="#223861"/>
<path d="M285.374 293.978C286.621 293.248 286.192 287.573 286.192 287.573C286.192 287.573 280.761 282.806 279.822 286.335C278.882 289.863 274.222 291.346 271.592 291.718C269.776 291.975 269.17 292.986 268.97 293.587L285.374 293.978Z" fill="#223861"/>
<path d="M297.276 253.549C297.045 254.825 296.898 255.871 296.859 256.621C296.33 266.934 288.177 290.515 286.719 291.064C284.463 291.916 280.91 290.106 279.051 289.514C278.281 289.268 277.761 288.491 277.933 287.703C281.97 269.143 283.454 242.417 283.993 226.594C284.266 218.624 285.634 213.119 285.634 213.119C285.634 213.119 305.518 207.814 305.636 214.525C305.74 220.463 299.049 243.753 297.276 253.549ZM297.276 253.549L283.993 226.594C284.266 218.624 285.634 213.119 285.634 213.119C285.634 213.119 305.518 207.814 305.636 214.525C305.74 220.463 299.049 243.753 297.276 253.549ZM292.852 214.548L303.364 290.73C303.364 290.73 307.98 291.843 311.57 290.953C311.57 290.953 314.647 250.436 314.391 240.64C314.134 230.845 316.599 214.43 313.828 212.619C311.057 210.809 292.852 214.548 292.852 214.548ZM314.567 194.988L314.569 195.03C314.568 195.016 314.568 195.002 314.567 194.988C314.546 194.44 314.526 193.899 314.503 193.368C314.502 193.336 314.5 193.304 314.499 193.272C314.491 193.053 314.481 192.837 314.47 192.622C314.468 192.565 314.466 192.509 314.463 192.453C314.452 192.224 314.441 191.996 314.429 191.77C314.428 191.75 314.427 191.732 314.426 191.713C314.415 191.478 314.402 191.244 314.389 191.013C314.385 190.941 314.38 190.869 314.376 190.799C314.367 190.637 314.357 190.477 314.347 190.319C314.342 190.235 314.337 190.151 314.331 190.067C314.319 189.899 314.309 189.734 314.297 189.568C314.289 189.468 314.282 189.366 314.274 189.266C314.264 189.125 314.254 188.984 314.242 188.843C314.241 188.826 314.239 188.809 314.238 188.792C314.223 188.603 314.207 188.416 314.19 188.229C314.184 188.171 314.18 188.111 314.175 188.053C314.157 187.849 314.136 187.645 314.116 187.444C314.112 187.406 314.108 187.366 314.104 187.328C314.082 187.106 314.058 186.886 314.032 186.668C314.03 186.65 314.028 186.631 314.026 186.613C313.888 185.417 313.714 184.281 313.489 183.204C311.723 174.708 306.748 166.735 306.748 166.751C306.748 168.336 303.373 169.705 300.621 169.525C298.303 169.373 296.797 167.611 296.797 166.655L296.795 166.652C296.606 166.652 286.339 173.789 286.33 180.421C286.324 185.935 286.255 190.583 286.154 194.496C286.041 198.844 285.885 202.284 285.723 204.998C285.245 213.01 284.716 214.695 285.062 214.689C285.062 214.689 288.111 217.464 296.163 217.413C301.225 217.382 305.345 216.819 308.407 216.183C311.667 215.507 313.358 215.211 314.824 214.786C315.487 214.593 315.927 213.967 315.877 213.279L314.567 194.988ZM296.795 166.653C296.795 166.653 287.248 166.572 284.951 169.794C282.653 173.017 277.615 190.352 280.244 196.12C282.873 201.888 287.792 193.734 290.522 190.201C293.252 186.667 296.795 166.653 296.795 166.653Z" fill="#203E79"/>
<path d="M297.276 253.549L283.993 226.594C284.266 218.624 285.634 213.119 285.634 213.119C285.634 213.119 305.518 207.814 305.636 214.525C305.74 220.463 299.049 243.753 297.276 253.549ZM292.852 214.548L303.364 290.73C303.364 290.73 307.979 291.843 311.569 290.953C311.569 290.953 314.647 250.436 314.391 240.64C314.134 230.845 316.599 214.43 313.828 212.619C311.057 210.809 292.852 214.548 292.852 214.548ZM314.567 194.988L314.569 195.03C314.568 195.016 314.568 195.002 314.567 194.988C314.546 194.44 314.526 193.899 314.503 193.368C314.502 193.336 314.5 193.304 314.499 193.272C314.491 193.053 314.481 192.837 314.47 192.622C314.468 192.565 314.466 192.509 314.463 192.453C314.452 192.224 314.441 191.996 314.429 191.77C314.428 191.75 314.427 191.732 314.426 191.713C314.415 191.478 314.402 191.244 314.389 191.013C314.385 190.941 314.38 190.869 314.376 190.799C314.367 190.637 314.357 190.477 314.347 190.319C314.342 190.235 314.337 190.151 314.331 190.067C314.319 189.899 314.308 189.734 314.297 189.568C314.289 189.468 314.282 189.366 314.274 189.266C314.264 189.125 314.254 188.984 314.242 188.843C314.241 188.826 314.239 188.809 314.238 188.792C314.223 188.603 314.207 188.416 314.19 188.229C314.184 188.171 314.18 188.111 314.175 188.053C314.157 187.849 314.136 187.645 314.116 187.444C314.112 187.406 314.108 187.366 314.104 187.328C314.081 187.106 314.058 186.886 314.032 186.668C314.03 186.65 314.028 186.631 314.026 186.613C313.888 185.417 313.714 184.281 313.489 183.204C311.723 174.708 306.748 166.735 306.748 166.751C306.748 168.336 303.372 169.705 300.621 169.525C298.303 169.373 296.797 167.611 296.797 166.655L296.795 166.652C296.606 166.652 286.339 173.789 286.33 180.421C286.324 185.935 286.255 190.583 286.154 194.496C286.041 198.844 285.885 202.284 285.723 204.998C285.245 213.01 284.716 214.695 285.062 214.689C285.062 214.689 288.111 217.464 296.162 217.413C301.225 217.382 305.345 216.819 308.407 216.183C311.667 215.507 313.358 215.211 314.824 214.786C315.487 214.593 315.927 213.967 315.877 213.279L314.567 194.988ZM296.795 166.653C296.795 166.653 287.248 166.572 284.951 169.794C282.653 173.017 277.615 190.352 280.244 196.12C282.873 201.888 287.792 193.734 290.522 190.201C293.252 186.667 296.795 166.653 296.795 166.653Z" fill="#223861"/>
<path d="M292.852 214.548L303.364 290.73C303.364 290.73 307.979 291.843 311.569 290.953C311.569 290.953 314.647 250.436 314.391 240.64C314.134 230.845 316.599 214.43 313.828 212.619C311.057 210.809 292.852 214.548 292.852 214.548ZM314.567 194.988L314.569 195.03C314.568 195.016 314.568 195.002 314.567 194.988C314.546 194.44 314.526 193.899 314.503 193.368C314.502 193.336 314.5 193.304 314.499 193.272C314.491 193.053 314.481 192.837 314.47 192.622C314.468 192.565 314.466 192.509 314.463 192.453C314.452 192.224 314.441 191.996 314.429 191.77C314.428 191.75 314.427 191.732 314.426 191.713C314.415 191.478 314.402 191.244 314.389 191.013C314.385 190.941 314.38 190.869 314.376 190.799C314.367 190.637 314.357 190.477 314.347 190.319C314.342 190.235 314.337 190.151 314.331 190.067C314.319 189.899 314.308 189.734 314.297 189.568C314.289 189.468 314.282 189.366 314.274 189.266C314.264 189.125 314.254 188.984 314.242 188.843C314.241 188.826 314.239 188.809 314.238 188.792C314.223 188.603 314.207 188.416 314.19 188.229C314.184 188.171 314.18 188.111 314.175 188.053C314.157 187.849 314.136 187.645 314.116 187.444C314.112 187.406 314.108 187.366 314.104 187.328C314.081 187.106 314.058 186.886 314.032 186.668C314.03 186.65 314.028 186.631 314.026 186.613C313.888 185.417 313.714 184.281 313.489 183.204C311.723 174.708 306.748 166.735 306.748 166.751C306.748 168.336 303.372 169.705 300.621 169.525C298.303 169.373 296.797 167.611 296.797 166.655L296.795 166.652C296.606 166.652 286.339 173.789 286.33 180.421C286.324 185.935 286.255 190.583 286.154 194.496C286.041 198.844 285.885 202.284 285.723 204.998C285.245 213.01 284.716 214.695 285.062 214.689C285.062 214.689 288.111 217.464 296.162 217.413C301.225 217.382 305.345 216.819 308.407 216.183C311.667 215.507 313.358 215.211 314.824 214.786C315.487 214.593 315.927 213.967 315.877 213.279L314.567 194.988ZM296.795 166.653C296.795 166.653 287.248 166.572 284.951 169.794C282.653 173.017 277.615 190.352 280.244 196.12C282.873 201.888 287.792 193.734 290.522 190.201C293.252 186.667 296.795 166.653 296.795 166.653Z" fill="#203E79"/>
<path d="M314.567 194.988L314.569 195.03C314.568 195.016 314.568 195.002 314.567 194.988C314.546 194.44 314.526 193.899 314.503 193.368C314.502 193.336 314.5 193.304 314.499 193.272C314.491 193.053 314.481 192.837 314.47 192.622C314.468 192.565 314.466 192.509 314.463 192.453C314.452 192.224 314.441 191.996 314.429 191.77C314.428 191.75 314.427 191.732 314.426 191.713C314.415 191.478 314.402 191.244 314.389 191.013C314.385 190.941 314.38 190.869 314.376 190.799C314.367 190.637 314.357 190.477 314.347 190.319C314.342 190.234 314.337 190.151 314.331 190.067C314.319 189.899 314.308 189.734 314.297 189.568C314.289 189.468 314.282 189.366 314.274 189.266C314.264 189.125 314.254 188.984 314.242 188.843C314.241 188.826 314.239 188.809 314.238 188.792C314.223 188.603 314.207 188.416 314.19 188.229C314.184 188.171 314.18 188.111 314.175 188.053C314.157 187.849 314.136 187.645 314.116 187.444C314.112 187.406 314.108 187.366 314.104 187.328C314.081 187.106 314.058 186.886 314.032 186.668C314.03 186.65 314.028 186.631 314.026 186.613C313.888 185.417 313.714 184.281 313.489 183.204C311.723 174.708 306.748 166.735 306.748 166.751C306.748 168.336 303.372 169.705 300.621 169.525C298.303 169.373 296.797 167.611 296.797 166.655L296.795 166.652C296.606 166.652 286.339 173.789 286.33 180.421C286.324 185.935 286.255 190.583 286.154 194.496C286.041 198.844 285.885 202.284 285.723 204.998C285.245 213.01 284.716 214.695 285.062 214.689C285.062 214.689 288.111 217.464 296.162 217.413C301.225 217.382 305.345 216.819 308.407 216.183C311.667 215.507 313.358 215.211 314.824 214.786C315.487 214.593 315.927 213.967 315.877 213.279L314.567 194.988ZM296.795 166.653C296.795 166.653 287.248 166.572 284.951 169.794C282.653 173.017 277.615 190.351 280.244 196.12C282.873 201.888 287.792 193.734 290.522 190.201C293.252 186.667 296.795 166.653 296.795 166.653Z" fill="#2B468A"/>
<path d="M296.698 165.196L296.703 166.183C296.703 166.183 296.434 169.269 300.235 169.72C304.035 170.172 306.915 168.516 306.812 166.135C306.47 164.291 306.093 163.024 306.068 161.498C306.059 160.931 306.098 160.33 306.203 159.65L298.839 159.503L296.67 159.858L296.698 165.196ZM296.67 159.857L296.698 165.196C297.48 165.559 298.363 165.781 299.352 165.781C302.737 165.781 304.925 163.299 306.068 161.498C306.059 160.931 306.098 160.33 306.203 159.65L298.839 159.503L296.67 159.857Z" fill="#FFB17C"/>
<path d="M296.67 159.857L296.698 165.196C297.48 165.559 298.363 165.782 299.352 165.782C302.737 165.782 304.925 163.299 306.068 161.498C306.059 160.931 306.098 160.33 306.203 159.65L298.839 159.503L296.67 159.857Z" fill="#E1915A"/>
<path d="M306.567 159.431C304.102 163.85 298.983 162.259 296.854 161.345C296.254 161.09 295.893 160.887 295.893 160.887C295.265 160.47 295.348 159.071 295.792 157.331C296.669 153.887 298.954 149.108 299.91 147.989C301.349 146.306 303.496 144.65 308.161 147.573C312.826 150.498 309.728 153.769 306.567 159.431ZM299.948 143.141C299.948 143.141 302.318 143.575 305.528 142.971C308.134 142.481 310.454 144.464 311.151 145.261C311.189 145.087 311.216 144.843 311.163 144.576C311.163 144.576 311.445 145.019 311.332 145.497C311.361 145.544 311.37 145.573 311.356 145.579C311.356 145.579 311.85 145.609 312.088 145.844C312.088 145.844 311.894 145.753 311.764 145.885C311.75 145.899 311.734 145.909 311.716 145.918C314.432 148.78 312.427 155.114 310.787 156.252C308.814 157.621 305.768 161.094 305.768 161.094C305.768 161.094 305.532 160.008 306.342 158.545C307.152 157.082 306.006 156.764 304.818 155.666C303.629 154.568 305.559 152.956 304.732 151.421C303.905 149.887 299.004 149.291 299.4 148.404C297.946 147.2 299.872 143.344 299.948 143.141Z" fill="#FFB17C"/>
<path d="M299.812 143.154C299.812 143.154 302.202 143.591 305.441 142.983C308.07 142.489 310.41 144.486 311.113 145.288C311.151 145.113 311.178 144.867 311.125 144.598C311.125 144.598 311.409 145.044 311.296 145.525C311.325 145.573 311.334 145.602 311.32 145.608C311.32 145.608 311.818 145.639 312.058 145.874C312.058 145.874 311.863 145.783 311.731 145.916C311.717 145.93 311.701 145.94 311.682 145.949C314.423 148.83 312.4 155.205 310.746 156.351C308.756 157.729 305.684 161.225 305.684 161.225C305.684 161.225 305.445 160.132 306.262 158.659C307.079 157.187 305.923 156.866 304.724 155.761C303.525 154.656 305.472 153.033 304.638 151.489C303.804 149.944 298.86 149.345 299.26 148.451C297.793 147.24 299.735 143.359 299.812 143.154Z" fill="#223861"/>
<path d="M287.032 179.572C287.032 179.572 283.34 187.727 283.448 190.171C283.448 190.171 285.276 190.108 287.032 190.632C289.919 191.492 287.032 179.572 287.032 179.572ZM307.971 194.847C306.412 201.106 289.555 204.341 285.723 204.998C285.885 202.284 286.041 198.844 286.154 194.496L307.971 194.847ZM304.271 196.882C304.432 196.882 308.018 196.346 308.66 196.025C309.303 195.704 312.241 191.528 310.317 190.457C308.393 189.387 303.227 193.669 303.227 193.669L304.271 196.882Z" fill="#223861"/>
<path d="M304.271 196.882C304.432 196.882 308.018 196.346 308.66 196.025C309.303 195.704 312.241 191.528 310.317 190.457C308.393 189.387 303.227 193.669 303.227 193.669L304.271 196.882Z" fill="#FFB17C"/>
<path d="M282.455 198.122C282.455 198.122 296.327 198.875 305.636 196.881C305.636 196.881 305.871 194.192 302.945 192.997C302.945 192.997 288.436 189.922 284.95 190.778C281.465 191.635 282.455 198.122 282.455 198.122ZM314.313 187.235C311.433 190.707 307.67 193.541 303.521 194.204L303.52 194.203C303.486 194.151 302.264 192.297 302.493 189.571C302.599 188.309 303.016 186.861 304.004 185.318C304.308 184.844 304.579 184.289 304.82 183.673C307.085 177.893 306.748 166.751 306.748 166.751C306.748 166.751 316.369 167.759 319.367 172.041C321.203 174.665 318.862 181.747 314.313 187.235Z" fill="#2B468A"/>
<path d="M296.846 165.151C296.184 164.988 296.587 162.631 296.587 162.631C295.867 162.316 295.698 160.948 295.837 159.198C297.125 158.781 298.933 159.351 298.21 160.816C299.839 160.11 298.823 163.51 296.846 165.151ZM293.492 165.181C293.492 165.181 291.633 160.378 294.072 159.555C295.008 159.239 296.669 158.948 297.139 159.361C298.83 160.848 297.165 161.638 297.556 161.376C300.147 159.643 296.466 165.504 296.466 165.504L293.492 165.181Z" fill="#E1915A"/>
<path d="M293.488 165.16C293.488 165.16 291.635 160.369 294.066 159.548C294.999 159.233 296.655 158.942 297.123 159.354C298.808 160.837 297.149 161.625 297.539 161.365C300.121 159.635 296.452 165.483 296.452 165.483L293.488 165.16Z" fill="#FFB17C"/>
<path d="M306.203 189.387C306.101 190.082 305.894 190.721 305.637 191.29C304.825 193.092 303.521 194.205 303.521 194.205L303.52 194.204C294.89 190.308 293.144 176.932 292.852 169.583C292.734 166.629 292.852 164.648 292.852 164.648C296.745 163.359 297.839 165.599 297.839 165.599C297.839 165.599 302.435 176.53 304.82 183.673C305.732 186.407 306.32 188.587 306.203 189.387ZM314.313 187.236C311.433 190.707 307.67 193.541 303.521 194.205L303.52 194.204C294.89 190.308 293.144 176.932 292.852 169.583C292.852 169.583 296.935 184.394 302.493 189.571C303.497 190.507 304.551 191.129 305.637 191.29C305.637 191.29 312.645 189.31 314.115 187.445C314.22 187.31 314.285 187.244 314.313 187.236Z" fill="#2B468A"/>
<path d="M314.313 187.236C311.433 190.707 307.67 193.541 303.521 194.205L303.52 194.204C294.89 190.308 293.144 176.932 292.852 169.583C292.852 169.583 296.935 184.394 302.493 189.571C303.497 190.507 304.551 191.129 305.637 191.29C305.637 191.29 312.645 189.31 314.115 187.445C314.22 187.31 314.285 187.244 314.313 187.236Z" fill="#223861"/>
<path d="M408.525 286.424C408.525 286.424 408.052 293.787 406.628 293.889C406.438 293.903 399.401 293.888 399.401 293.888L390.419 293.816C390.419 293.816 390.483 291.652 393.109 291.2C395.736 290.748 400.135 288.913 401.733 285.446C403.414 281.798 408.525 286.424 408.525 286.424ZM428.532 286.467C428.532 286.467 428.059 293.831 426.635 293.933C426.445 293.947 419.408 293.931 419.408 293.931L410.426 293.86C410.426 293.86 410.49 291.696 413.116 291.244C415.743 290.792 420.142 288.956 421.74 285.489C423.421 281.842 428.532 286.467 428.532 286.467Z" fill="#15355F"/>
<path d="M398.749 207.258C398.749 207.258 401.065 222.289 409.771 248.98C418.477 275.672 419.646 287.224 419.646 287.224L429.048 286.981C429.048 286.981 429.192 257.832 425.182 244.41C421.172 230.989 424.416 196.055 424.416 196.055L398.749 207.258ZM394.196 196.812C394.196 196.812 393.814 219.454 397.672 247.263C401.529 275.072 400.175 286.87 400.175 286.87L409.557 287.202C409.557 287.202 415.225 259.403 413.647 245.485C412.07 231.567 421.429 197.754 421.429 197.754L394.196 196.812Z" fill="#15355F"/>
<path d="M394.196 196.812C394.196 196.812 393.814 219.454 397.672 247.263C401.529 275.072 400.175 286.87 400.175 286.87L409.557 287.202C409.557 287.202 415.225 259.403 413.647 245.485C412.07 231.567 421.429 197.754 421.429 197.754L394.196 196.812Z" fill="#1C4689"/>
<path d="M412.475 143.866L407.469 147.133L400.247 145.771C400.348 145.187 400.83 142.771 401.269 140.583C401.296 140.454 401.322 140.324 401.347 140.198C401.723 138.336 402.048 136.737 402.048 136.737C402.048 136.737 405.259 132.18 407.396 131.243C410.147 130.24 411.32 132.67 411.32 132.67C411.314 132.709 411.121 134.736 411.094 135.032C410.611 140.29 412.475 143.866 412.475 143.866ZM401.269 140.583C401.154 140.644 401.321 140.327 401.347 140.199C401.581 139.045 402.048 136.737 402.048 136.737C402.048 136.737 404.899 131.695 407.419 131.029C409.978 130.353 411.326 132.512 411.29 132.81C410.653 138.115 403.537 139.381 401.269 140.583Z" fill="#FFB17C"/>
<path d="M401.269 140.583C401.154 140.644 401.321 140.327 401.347 140.199C401.581 139.045 402.048 136.737 402.048 136.737C402.048 136.737 404.899 131.695 407.419 131.029C409.978 130.353 411.326 132.512 411.29 132.81C410.653 138.115 403.537 139.381 401.269 140.583Z" fill="#FBA46B"/>
<path d="M414.574 142.562C414.574 142.562 427.963 156.443 428.595 161.668C429.228 166.893 422.182 175.048 422.182 175.048L414.574 142.562ZM402.105 142.19C402.245 142.131 410.811 139.624 411.74 139.933C412.669 140.242 413.216 142.042 413.216 142.042L399.208 145.177C399.208 145.177 400.315 142.939 402.105 142.19ZM425.03 199.675C423.565 206.29 399.415 207.023 393.204 201.001C392.498 200.315 392.47 197.128 392.746 192.833C393.286 184.44 394.991 171.818 395.071 165.367C395.109 162.252 395.544 159.067 396.12 156.175C397.347 150.011 399.207 145.176 399.207 145.176C399.207 145.176 411.01 141.389 413.216 142.042C423.841 145.189 426.496 193.059 425.03 199.675ZM392.746 192.833C393.287 184.44 394.991 171.818 395.071 165.367C395.109 162.252 395.544 159.067 396.121 156.175L403.219 154.938C403.219 154.938 410.094 183.287 392.746 192.833Z" fill="#EC7C2B"/>
<path d="M425.03 199.675C423.565 206.29 399.415 207.023 393.204 201.001C392.498 200.315 392.47 197.128 392.746 192.833C393.286 184.44 394.991 171.818 395.071 165.367C395.109 162.252 395.544 159.067 396.12 156.175C397.347 150.011 399.207 145.176 399.207 145.176C399.207 145.176 411.01 141.389 413.216 142.042C423.841 145.189 426.496 193.059 425.03 199.675ZM392.746 192.833C393.287 184.44 394.991 171.818 395.071 165.367C395.109 162.252 395.544 159.067 396.121 156.175L403.219 154.938C403.219 154.938 410.094 183.287 392.746 192.833Z" fill="#F89646"/>
<path d="M392.746 192.833C393.287 184.44 394.991 171.818 395.071 165.367C395.109 162.252 395.544 159.067 396.121 156.175L403.219 154.938C403.219 154.938 410.094 183.287 392.746 192.833Z" fill="#EC7C2B"/>
<path d="M396.614 181.142C396.614 181.142 397.095 182.299 396.077 183.073C395.06 183.847 394.399 185.103 394.63 186.022C394.86 186.942 397.085 188.446 397.857 188.206C398.63 187.965 400.205 186.758 400.037 186.274C399.868 185.788 401.103 182.022 399.223 180.567C397.344 179.112 396.614 181.142 396.614 181.142ZM404.629 143.49C404.629 143.49 397.707 144.77 392.176 152.883C386.645 160.996 383.004 167.029 384.013 169.96C385.023 172.89 394.259 183.067 395.855 183.07C397.451 183.074 400.029 181.919 400.179 179.307C400.179 179.307 393.683 169.524 394.97 168.064C395.52 167.44 403.447 161.033 404.571 163.937C406.43 168.743 404.629 143.49 404.629 143.49Z" fill="#FFB17C"/>
<path d="M404.629 143.49C404.629 143.49 397.707 144.77 392.176 152.883C386.645 160.996 383.004 167.029 384.013 169.96C385.023 172.89 394.259 183.067 395.855 183.07C397.451 183.074 400.029 181.919 400.179 179.307C400.179 179.307 393.683 169.524 394.97 168.064C395.52 167.44 403.447 161.033 404.571 163.937C406.43 168.743 404.629 143.49 404.629 143.49Z" fill="#F89646"/>
<path d="M399.884 136.621C399.884 136.621 410.743 139.75 412.33 132.821C413.917 125.893 416.388 121.63 409.522 119.34C402.656 117.049 400.698 119.326 399.617 121.489C398.536 123.652 397.1 135.628 399.884 136.621ZM399.999 120.815C399.999 120.815 401.125 128.795 402.713 128.402C404.299 128.01 405.742 127.712 405.641 130.13C405.54 132.547 403.468 135.394 408.442 135.682C413.417 135.971 419.802 122.625 418.303 120.174C413.979 113.101 393.839 112.211 399.999 120.815Z" fill="#FFB17C"/>
<path d="M400.024 120.815C400.024 120.815 401.15 128.795 402.737 128.403C404.324 128.011 405.767 127.713 405.666 130.13C405.565 132.548 403.492 135.395 408.467 135.683C413.442 135.971 419.828 122.626 418.329 120.174C414.004 113.101 393.864 112.211 400.024 120.815Z" fill="#15355F"/>
<path d="M397.74 95.6566H247.27L235.738 57.8937H386.209L397.74 95.6566Z" fill="#F9FCFF"/>
<path d="M380.482 70.6624L381.861 75.1791C382.468 77.1664 381.339 78.793 379.351 78.793H254.689C252.702 78.793 250.579 77.1664 249.973 75.1791L248.593 70.6624C247.986 68.675 249.116 67.049 251.103 67.049H375.765C377.752 67.049 379.875 68.675 380.482 70.6624Z" fill="#B7D4F8"/>
<path d="M335.397 67.049L338.983 78.793H254.689C253.033 78.793 251.285 77.6637 250.398 76.1401C250.217 75.8329 250.073 75.5106 249.972 75.1793L248.593 70.6626C247.986 68.6753 249.115 67.049 251.103 67.049H335.397Z" fill="#F89646"/>
<path d="M256.691 84.6506C256.691 84.6506 276.342 84.6628 293.636 84.6737" stroke="#78ACEA" stroke-width="4.81294" stroke-dasharray="48.66 6.42"/>
<mask id="mask0" mask-type="alpha" maskUnits="userSpaceOnUse" x="248" y="67" width="91" height="12">
<path d="M334.968 67L338.555 78.744H254.26C252.604 78.744 250.856 77.6147 249.969 76.0912C249.788 75.7839 249.645 75.4617 249.543 75.1303L248.164 70.6137C247.557 68.6263 248.687 67 250.674 67H334.968Z" fill="#F89646"/>
</mask>
<g mask="url(#mask0)">
<path d="M333.694 65.5706L328.69 80.4207H321.04L326.043 65.5706H333.694Z" fill="#F6741E"/>
<path d="M315.91 65.5706L310.906 80.4207H303.256L308.259 65.5706H315.91Z" fill="#F6741E"/>
<path d="M298.126 65.5706L293.122 80.4207H285.472L290.475 65.5706H298.126Z" fill="#F6741E"/>
<path d="M280.342 65.5706L275.338 80.4207H267.688L272.691 65.5706H280.342Z" fill="#F6741E"/>
<path d="M262.558 65.5706L257.554 80.4207H249.904L254.907 65.5706H262.558Z" fill="#F6741E"/>
</g>
<path d="M189.307 153.905H83.4535L67.0001 100.025H172.854L189.307 153.905ZM189.307 153.905H83.4535L67.0001 100.025H172.854L189.307 153.905Z" fill="#F9FCFF"/>
<path d="M174.367 126.965H81.9402L74.9476 104.066H167.374L174.367 126.965ZM174.367 126.965H81.9402L74.9476 104.066H167.374L174.367 126.965Z" fill="#4975CA"/>
<path d="M140.305 134.11C137.373 134.11 135.716 136.496 136.611 139.429C137.507 142.361 140.621 144.747 143.553 144.747C146.486 144.747 148.143 142.361 147.247 139.429C146.352 136.496 143.238 134.11 140.305 134.11ZM140.305 134.11C137.373 134.11 135.716 136.496 136.611 139.429C137.507 142.361 140.621 144.747 143.553 144.747C146.486 144.747 148.143 142.361 147.247 139.429C146.352 136.496 143.238 134.11 140.305 134.11ZM102.405 134.11C99.4729 134.11 97.8157 136.496 98.7112 139.429C99.6068 142.361 102.721 144.747 105.653 144.747C108.586 144.747 110.243 142.361 109.347 139.429C108.452 136.496 105.338 134.11 102.405 134.11ZM102.405 134.11C99.4729 134.11 97.8157 136.496 98.7112 139.429C99.6068 142.361 102.721 144.747 105.653 144.747C108.586 144.747 110.243 142.361 109.347 139.429C108.452 136.496 105.338 134.11 102.405 134.11ZM121.689 134.11C118.756 134.11 117.099 136.496 117.994 139.429C118.89 142.361 122.004 144.747 124.937 144.747C127.869 144.747 129.526 142.361 128.631 139.429C127.735 136.496 124.621 134.11 121.689 134.11ZM121.689 134.11C118.756 134.11 117.099 136.496 117.994 139.429C118.89 142.361 122.004 144.747 124.937 144.747C127.869 144.747 129.526 142.361 128.631 139.429C127.735 136.496 124.621 134.11 121.689 134.11ZM158.266 134.11C155.333 134.11 153.676 136.496 154.572 139.429C155.467 142.361 158.581 144.747 161.514 144.747C164.447 144.747 166.103 142.361 165.208 139.429C164.312 136.496 161.198 134.11 158.266 134.11ZM158.266 134.11C155.333 134.11 153.676 136.496 154.572 139.429C155.467 142.361 158.581 144.747 161.514 144.747C164.447 144.747 166.103 142.361 165.208 139.429C164.312 136.496 161.198 134.11 158.266 134.11Z" stroke="#D3E4FB" stroke-width="6.24"/>
<path d="M121.689 134.11C120.319 134.11 119.227 134.631 118.544 135.485M140.305 134.11C138.935 134.11 137.844 134.631 137.161 135.485L140.305 134.11ZM140.305 134.11C138.935 134.11 137.844 134.631 137.161 135.485L140.305 134.11ZM102.405 134.11C101.036 134.11 99.944 134.631 99.2609 135.485L102.405 134.11ZM102.405 134.11C101.036 134.11 99.944 134.631 99.2609 135.485L102.405 134.11ZM121.689 134.11C120.319 134.11 119.227 134.631 118.544 135.485L121.689 134.11Z" stroke="#F0A452" stroke-width="3.64"/>
<path d="M158.266 134.11C156.896 134.11 155.805 134.631 155.122 135.485M158.266 134.11C156.896 134.11 155.805 134.631 155.122 135.485L158.266 134.11Z" stroke="#A8D29F" stroke-width="3.64"/>
<path d="M82.7973 119.991C82.7973 119.991 120.487 120.015 137.409 120.026" stroke="#78ACEA" stroke-width="2.13909" stroke-dasharray="48.66 6.42"/>
<path d="M80.6219 113.673L142.706 113.713M155.947 116.635C161.402 116.635 164.828 116.635 164.828 116.635H155.947ZM82.4595 116.635C82.4595 116.635 90.7302 116.635 102.03 116.635H82.4595Z" stroke="#78ACEA" stroke-width="2.13909" stroke-dasharray="48.66 6.42"/>
<path d="M78.4464 107.355L140.531 107.395M153.772 110.317C159.227 110.317 162.653 110.317 162.653 110.317H153.772ZM80.284 110.317C80.284 110.317 88.5547 110.317 99.8546 110.317H80.284Z" stroke="#78ACEA" stroke-width="2.13909" stroke-dasharray="48.66 6.42"/>
</svg>
